<svg width="32" height="19" viewBox="0 0 32 19" fill="none" xmlns="http://www.w3.org/2000/svg">
<g clip-path="url(#clip0_8_367)">
<path d="M8.73198 6.63609C8.73198 7.0121 8.77263 7.31698 8.84377 7.54055C8.92507 7.76412 9.02669 8.00802 9.16897 8.27225C9.21978 8.35355 9.2401 8.43485 9.2401 8.50598C9.2401 8.60761 9.17913 8.70923 9.04702 8.81086L8.40678 9.23768C8.31532 9.29866 8.22386 9.32914 8.14256 9.32914C8.04093 9.32914 7.93931 9.27833 7.83768 9.18687C7.69541 9.03443 7.57346 8.87183 7.47183 8.70923C7.37021 8.53647 7.26859 8.34338 7.1568 8.10965C6.36413 9.0446 5.3682 9.51207 4.16903 9.51207C3.31539 9.51207 2.6345 9.26817 2.13654 8.78037C1.63858 8.29257 1.38452 7.64217 1.38452 6.82918C1.38452 5.96537 1.68939 5.26416 2.3093 4.73571C2.92921 4.20726 3.75237 3.94304 4.79911 3.94304C5.14463 3.94304 5.50032 3.97352 5.87633 4.02434C6.25234 4.07515 6.63851 4.15645 7.04501 4.24791V3.50605C7.04501 2.7337 6.88241 2.19509 6.56738 1.88006C6.24218 1.56502 5.6934 1.41258 4.91089 1.41258C4.55521 1.41258 4.18936 1.45323 3.81335 1.54469C3.43734 1.63616 3.07149 1.74794 2.7158 1.89022C2.5532 1.96136 2.43125 2.00201 2.36011 2.02233C2.28898 2.04266 2.23816 2.05282 2.19751 2.05282C2.05524 2.05282 1.9841 1.95119 1.9841 1.73778V1.23982C1.9841 1.07722 2.00443 0.955272 2.05524 0.884135C2.10605 0.812997 2.19751 0.74186 2.33979 0.670723C2.69548 0.487798 3.1223 0.335361 3.62026 0.213412C4.11822 0.0812997 4.64667 0.0203249 5.2056 0.0203249C6.41494 0.0203249 7.29907 0.294711 7.86817 0.843485C8.42711 1.39226 8.71166 2.22558 8.71166 3.34345V6.63609H8.73198ZM4.60602 8.18079C4.94138 8.18079 5.2869 8.11981 5.65275 7.99786C6.0186 7.87591 6.3438 7.65234 6.61819 7.34746C6.78079 7.15438 6.90274 6.94096 6.96371 6.69707C7.02469 6.45317 7.06534 6.15845 7.06534 5.81293V5.38611C6.77062 5.31497 6.45559 5.254 6.13039 5.21335C5.80519 5.1727 5.49015 5.15237 5.17512 5.15237C4.49423 5.15237 3.99627 5.28448 3.66091 5.55887C3.32555 5.83326 3.16295 6.21943 3.16295 6.72755C3.16295 7.20519 3.2849 7.56088 3.53896 7.80477C3.78286 8.05884 4.13855 8.18079 4.60602 8.18079ZM12.7665 9.27833C12.5836 9.27833 12.4616 9.24784 12.3803 9.17671C12.299 9.11573 12.2279 8.97346 12.1669 8.78037L9.77871 0.924784C9.71774 0.721535 9.68725 0.589423 9.68725 0.518286C9.68725 0.355686 9.76855 0.264224 9.93115 0.264224H10.9271C11.1202 0.264224 11.2523 0.294712 11.3234 0.365849C11.4047 0.426824 11.4657 0.569098 11.5267 0.762185L13.234 7.48974L14.8193 0.762185C14.8701 0.558936 14.9311 0.426824 15.0124 0.365849C15.0937 0.304874 15.236 0.264224 15.4189 0.264224H16.2319C16.425 0.264224 16.5571 0.294712 16.6384 0.365849C16.7197 0.426824 16.7908 0.569098 16.8315 0.762185L18.4371 7.57104L20.1953 0.762185C20.2562 0.558936 20.3274 0.426824 20.3985 0.365849C20.4798 0.304874 20.6119 0.264224 20.7948 0.264224H21.7399C21.9025 0.264224 21.994 0.345524 21.994 0.518286C21.994 0.569098 21.9838 0.61991 21.9737 0.680885C21.9635 0.74186 21.9432 0.82316 21.9025 0.934947L19.4534 8.79053C19.3924 8.99378 19.3213 9.12589 19.24 9.18687C19.1587 9.24784 19.0266 9.28849 18.8538 9.28849H17.9798C17.7867 9.28849 17.6546 9.25801 17.5733 9.18687C17.492 9.11573 17.4209 8.98362 17.3802 8.78037L15.8051 2.22558L14.24 8.77021C14.1892 8.97346 14.1283 9.10557 14.047 9.17671C13.9657 9.24784 13.8234 9.27833 13.6405 9.27833H12.7665ZM25.8253 9.55272C25.2968 9.55272 24.7684 9.49174 24.2602 9.36979C23.7521 9.24784 23.3558 9.11573 23.0916 8.9633C22.929 8.87183 22.8172 8.77021 22.7765 8.67875C22.7359 8.58728 22.7155 8.48566 22.7155 8.3942V7.87591C22.7155 7.6625 22.7968 7.56087 22.9493 7.56087C23.0103 7.56087 23.0712 7.57104 23.1322 7.59136C23.1932 7.61169 23.2846 7.65234 23.3863 7.69299C23.7318 7.84542 24.1078 7.96737 24.5041 8.04867C24.9106 8.12997 25.307 8.17062 25.7135 8.17062C26.3537 8.17062 26.8517 8.05884 27.1972 7.83526C27.5427 7.61169 27.7256 7.28649 27.7256 6.86983C27.7256 6.58528 27.6342 6.35154 27.4513 6.15845C27.2683 5.96537 26.9228 5.79261 26.4248 5.63001L24.9513 5.1727C24.2094 4.93896 23.6607 4.59343 23.3253 4.13612C22.9899 3.68898 22.8172 3.19101 22.8172 2.66257C22.8172 2.23574 22.9086 1.85973 23.0916 1.53453C23.2745 1.20933 23.5184 0.924784 23.8232 0.70121C24.1281 0.467473 24.4736 0.294712 24.8801 0.172762C25.2866 0.0508123 25.7135 0 26.1606 0C26.3842 0 26.6179 0.0101625 26.8415 0.0406499C27.0752 0.0711373 27.2887 0.111787 27.5021 0.152437C27.7053 0.203249 27.8984 0.254062 28.0813 0.315036C28.2642 0.376011 28.4065 0.436986 28.5081 0.497961C28.6504 0.579261 28.752 0.66056 28.813 0.752022C28.874 0.833322 28.9045 0.945109 28.9045 1.08738V1.56502C28.9045 1.77843 28.8232 1.89022 28.6707 1.89022C28.5894 1.89022 28.4573 1.84957 28.2846 1.76827C27.7053 1.50404 27.0549 1.37193 26.3334 1.37193C25.7541 1.37193 25.2968 1.4634 24.9818 1.65648C24.6667 1.84957 24.5041 2.14428 24.5041 2.56094C24.5041 2.84549 24.6058 3.08939 24.809 3.28248C25.0123 3.47556 25.3883 3.66865 25.9269 3.84141L27.3699 4.29872C28.1016 4.53246 28.6301 4.85766 28.9451 5.27432C29.2602 5.69098 29.4126 6.16862 29.4126 6.69707C29.4126 7.13405 29.3211 7.53039 29.1484 7.87591C28.9655 8.22144 28.7216 8.52631 28.4065 8.77021C28.0915 9.02427 27.7155 9.20719 27.2785 9.33931C26.8212 9.48158 26.3435 9.55272 25.8253 9.55272Z" fill="#01629B"/>
<path fill-rule="evenodd" clip-rule="evenodd" d="M27.7459 14.4917C24.4025 16.9612 19.5448 18.2721 15.368 18.2721C9.51445 18.2721 4.24014 16.1075 0.256459 12.51C-0.0585765 12.2255 0.225971 11.8393 0.601982 12.0629C4.91086 14.5628 10.2258 16.077 15.7237 16.077C19.433 16.077 23.5082 15.3047 27.2581 13.7194C27.817 13.4653 28.2947 14.0852 27.7459 14.4917Z" fill="#FF9900"/>
<path fill-rule="evenodd" clip-rule="evenodd" d="M29.1382 12.9064C28.7113 12.3576 26.313 12.6421 25.2256 12.7742C24.9004 12.8149 24.8496 12.5303 25.1443 12.3169C27.0549 10.9755 30.195 11.3617 30.5609 11.8088C30.9267 12.2661 30.4593 15.4063 28.6707 16.9104C28.3963 17.1441 28.1321 17.0222 28.254 16.7173C28.6605 15.7112 29.565 13.445 29.1382 12.9064Z" fill="#FF9900"/>
</g>
<defs>
<clipPath id="clip0_8_367">
<rect width="31" height="19" fill="white" transform="translate(0.121094)"/>
</clipPath>
</defs>
</svg>
