<svg width="33" height="26" viewBox="0 0 33 26" fill="none" xmlns="http://www.w3.org/2000/svg">
<g clip-path="url(#clip0_8_354)">
<path fill-rule="evenodd" clip-rule="evenodd" d="M6.81124 0.5C4.94011 0.5 3.55556 2.05373 3.61756 3.73871C3.67706 5.35753 3.59975 7.45412 3.04342 9.1639C2.48511 10.8785 1.54154 11.965 0 12.1044V13.679C1.54154 13.8187 2.48511 14.9047 3.04336 16.6195C3.59975 18.3293 3.677 20.4259 3.6175 22.0447C3.5555 23.7294 4.94005 25.2834 6.8115 25.2834H25.9844C27.8556 25.2834 29.2398 23.7297 29.1778 22.0447C29.1183 20.4259 29.1957 18.3293 29.752 16.6195C30.3103 14.9047 31.2516 13.8183 32.7932 13.679V12.1044C31.2516 11.9647 30.3104 10.8787 29.752 9.1639C29.1956 7.45437 29.1183 5.35753 29.1778 3.73871C29.2398 2.05398 27.8556 0.5 25.9844 0.5H6.81124ZM22.2327 15.7558C22.2327 18.076 20.4085 19.4831 17.3812 19.4831H12.2279C12.0805 19.4831 11.9392 19.4275 11.8349 19.3286C11.7307 19.2297 11.6721 19.0956 11.6721 18.9558V6.82771C11.6721 6.68786 11.7307 6.55373 11.8349 6.45484C11.9392 6.35595 12.0805 6.3004 12.2279 6.3004H17.3519C19.8761 6.3004 21.5327 7.59759 21.5327 9.58918C21.5327 10.9871 20.4183 12.2385 18.9985 12.4577V12.5306C20.9313 12.7318 22.2327 14.0017 22.2327 15.7558ZM16.8193 7.97195H13.881V11.9095H16.3558C18.2689 11.9095 19.3238 11.1786 19.3238 9.87222C19.3236 8.64795 18.4167 7.97195 16.8193 7.97195ZM13.881 13.4718V17.811H16.9274C18.9194 17.811 19.9744 17.0527 19.9744 15.6277C19.9744 14.2026 18.8898 13.4715 16.7993 13.4715L13.881 13.4718Z" fill="#7952B3"/>
</g>
<defs>
<clipPath id="clip0_8_354">
<rect width="33" height="25" fill="white" transform="translate(0 0.5)"/>
</clipPath>
</defs>
</svg>
