<svg width="29" height="31" viewBox="0 0 29 31" fill="none" xmlns="http://www.w3.org/2000/svg">
<g clip-path="url(#clip0_8_370)">
<path d="M28.105 8.95913C28.1048 8.44674 27.9932 7.99397 27.7676 7.60538C27.5459 7.22326 27.214 6.90299 26.7688 6.64976C23.0936 4.56848 19.4149 2.49357 15.7409 0.410164C14.7504 -0.151449 13.79 -0.130975 12.8069 0.438701C11.3441 1.286 4.02017 5.40708 1.83775 6.6486C0.938968 7.15961 0.50162 7.94167 0.501404 8.95817C0.5 13.1438 0.501404 17.3292 0.5 21.5149C0.500216 22.0161 0.607042 22.46 0.822745 22.8428C1.0445 23.2365 1.38107 23.5655 1.83656 23.8245C4.01909 25.066 11.3439 29.1868 12.8065 30.0343C13.79 30.6043 14.7504 30.6246 15.7412 30.0628C19.4153 27.9793 23.0942 25.9045 26.7699 23.8232C27.2254 23.5644 27.562 23.2351 27.7838 22.8417C27.9991 22.459 28.1062 22.015 28.1064 21.5138C28.1064 21.5138 28.1064 13.1448 28.105 8.95913Z" fill="#5C8DBC"/>
<path d="M14.3455 15.1958L0.822754 22.8428C1.04451 23.2365 1.38108 23.5656 1.83657 23.8245C4.0191 25.0661 11.344 29.1868 12.8065 30.0343C13.7901 30.6043 14.7504 30.6247 15.7412 30.0629C19.4153 27.9794 23.0943 25.9046 26.77 23.8233C27.2255 23.5644 27.5621 23.2351 27.7838 22.8418L14.3455 15.1958Z" fill="#1A4674"/>
<path d="M10.3402 17.4609C11.1271 18.8101 12.6063 19.7201 14.3032 19.7201C16.0106 19.7201 17.4983 18.7985 18.2812 17.4349L14.3455 15.1958L10.3402 17.4609Z" fill="#1A4674"/>
<path d="M28.105 8.95922C28.1048 8.44683 27.9932 7.99406 27.7676 7.60547L14.3455 15.1959L27.7838 22.8418C27.9992 22.4591 28.1062 22.0151 28.1064 21.5139C28.1064 21.5139 28.1064 13.1449 28.105 8.95922Z" fill="#1B598E"/>
<path d="M27.366 15.7423H26.3159V16.7739H25.2656V15.7423H24.2156V14.711H25.2656V13.6797H26.3159V14.711H27.366V15.7423ZM23.5343 15.7423H22.4842V16.7739H21.4341V15.7423H20.384V14.711H21.4341V13.6797H22.4842V14.711H23.5343V15.7423Z" fill="white"/>
<path d="M18.2811 17.4349C17.4982 18.7985 16.0106 19.7201 14.3032 19.7201C12.6063 19.7201 11.127 18.8101 10.3401 17.4609C9.94486 16.7839 9.73726 16.0169 9.73808 15.2365C9.73808 12.7604 11.782 10.7531 14.3032 10.7531C15.9892 10.7531 17.4606 11.6517 18.2514 12.9871L22.2416 10.7305C20.6556 8.04163 17.6946 6.23267 14.3032 6.23267C9.23992 6.23267 5.1355 10.2639 5.1355 15.2365C5.1355 16.8679 5.57738 18.3978 6.34968 19.7174C7.93166 22.4204 10.9011 24.2405 14.3032 24.2405C17.7116 24.2405 20.6856 22.4131 22.2653 19.7021L18.2811 17.4349Z" fill="white"/>
</g>
<defs>
<clipPath id="clip0_8_370">
<rect width="28" height="31" fill="white" transform="translate(0.5)"/>
</clipPath>
</defs>
</svg>
