<svg width="29" height="32" viewBox="0 0 29 32" fill="none" xmlns="http://www.w3.org/2000/svg">
<g clip-path="url(#clip0_8_357)">
<path d="M28.9153 0L26.2811 27.9968L14.44 31.1111L2.63147 28.0011L0 0H28.9153Z" fill="#264DE4"/>
<path d="M24.0258 26.214L26.2769 2.28949H14.4576V28.7306L24.0258 26.214Z" fill="#2965F1"/>
<path d="M6.03259 12.6747L6.35703 16.1089H14.4577V12.6747H6.03259Z" fill="#EBEBEB"/>
<path d="M14.4577 5.72369H14.4452H5.38074L5.7098 9.15796H14.4577V5.72369Z" fill="#EBEBEB"/>
<path d="M14.4577 25.1667V21.5937L14.4418 21.5977L10.4103 20.565L10.1526 17.826H8.19361H6.5188L7.02595 23.2182L14.441 25.1711L14.4577 25.1667Z" fill="#EBEBEB"/>
<path d="M18.9027 16.1089L18.4825 20.5628L14.4452 21.5966V25.1695L21.8662 23.2183L21.9206 22.6381L22.7712 13.5969L22.8596 12.6747L23.5131 5.72369H14.4452V9.15796H19.546L19.2166 12.6747H14.4452V16.1089H18.9027Z" fill="white"/>
</g>
<defs>
<clipPath id="clip0_8_357">
<rect width="29" height="32" fill="white"/>
</clipPath>
</defs>
</svg>
