<svg width="22" height="32" viewBox="0 0 22 32" fill="none" xmlns="http://www.w3.org/2000/svg">
<g clip-path="url(#clip0_8_355)">
<path d="M5.46553 31.1111C8.4825 31.1111 10.9311 28.7882 10.9311 25.9259V20.7408H5.46553C2.44856 20.7408 0 23.0637 0 25.9259C0 28.7882 2.44856 31.1111 5.46553 31.1111Z" fill="#0ACF83"/>
<path d="M0 15.5555C0 12.6933 2.44856 10.3703 5.46553 10.3703H10.9311V20.7407H5.46553C2.44856 20.7407 0 18.4177 0 15.5555Z" fill="#A259FF"/>
<path d="M0 5.18518C0 2.32296 2.44856 0 5.46553 0H10.9311V10.3704H5.46553C2.44856 10.3704 0 8.0474 0 5.18518Z" fill="#F24E1E"/>
<path d="M10.931 0H16.3966C19.4136 0 21.8621 2.32296 21.8621 5.18518C21.8621 8.0474 19.4136 10.3704 16.3966 10.3704H10.931V0Z" fill="#FF7262"/>
<path d="M21.8621 15.5555C21.8621 18.4177 19.4136 20.7407 16.3966 20.7407C13.3796 20.7407 10.931 18.4177 10.931 15.5555C10.931 12.6933 13.3796 10.3703 16.3966 10.3703C19.4136 10.3703 21.8621 12.6933 21.8621 15.5555Z" fill="#1ABCFE"/>
</g>
<defs>
<clipPath id="clip0_8_355">
<rect width="22" height="32" fill="white"/>
</clipPath>
</defs>
</svg>
