<svg width="22" height="31" viewBox="0 0 22 31" fill="none" xmlns="http://www.w3.org/2000/svg">
<g clip-path="url(#clip0_8_375)">
<path d="M14.1405 11.259L11.3625 14.1042L8.78381 8.38028L10.116 5.08913C10.4526 4.43264 11.0033 4.42397 11.34 5.08913L14.1405 11.259Z" fill="#FFA000"/>
<path d="M11.3638 14.1028L0.972412 24.7343L8.78507 8.38013L11.3638 14.1028Z" fill="#F57F17"/>
<path d="M17.1866 6.90746C17.6843 6.38597 18.1967 6.56187 18.3262 7.30259L21.0276 24.5908L12.0675 30.5079C11.7534 30.7011 10.9201 30.7767 10.9201 30.7767C10.9201 30.7767 10.1622 30.6751 9.87171 30.4992L0.972412 24.7344L17.1866 6.90746Z" fill="#FFCA28"/>
<path d="M8.78505 8.38016L0.972412 24.7343L4.45421 0.830464C4.58483 0.0897388 4.96657 0.0141798 5.31114 0.670675L8.78505 8.38016Z" fill="#FFA000"/>
</g>
<defs>
<clipPath id="clip0_8_375">
<rect width="21" height="31" fill="white" transform="translate(0.5)"/>
</clipPath>
</defs>
</svg>
