<svg width="33" height="32" viewBox="0 0 33 32" fill="none" xmlns="http://www.w3.org/2000/svg">
<g clip-path="url(#clip0_8_358)">
<path d="M32.1747 14.1694L17.8569 0.586706C17.0328 -0.195569 15.6955 -0.195569 14.8704 0.586706L11.8973 3.40737L15.6689 6.98551C16.5453 6.70453 17.5504 6.89302 18.249 7.55584C18.951 8.2229 19.1483 9.18455 18.8449 10.0187L22.4797 13.4672C23.3591 13.1798 24.3738 13.3657 25.0761 14.0331C26.0578 14.964 26.0578 16.4728 25.0761 17.4043C24.0943 18.336 22.5039 18.336 21.5215 17.4043C20.7832 16.7031 20.6008 15.6744 20.9746 14.8114L17.5848 11.5955L17.5844 20.0584C17.8302 20.1736 18.0546 20.3259 18.249 20.5092C19.2306 21.4401 19.2306 22.949 18.249 23.8813C17.2671 24.8124 15.676 24.8124 14.6956 23.8813C13.7139 22.949 13.7139 21.4403 14.6956 20.5094C14.9308 20.2861 15.2104 20.1092 15.5181 19.9891V11.4474C15.2099 11.3281 14.9302 11.1511 14.6956 10.9271C13.9518 10.2225 13.773 9.18723 14.1541 8.32085L10.4362 4.79327L0.618715 14.1065C-0.206238 14.8896 -0.206238 16.1584 0.618715 16.9408L14.9368 30.5237C15.7611 31.3061 17.0982 31.3061 17.9235 30.5237L32.1746 17.0039C32.9993 16.2213 32.9994 14.9517 32.1747 14.1694Z" fill="#DE4C36"/>
</g>
<defs>
<clipPath id="clip0_8_358">
<rect width="33" height="32" fill="white"/>
</clipPath>
</defs>
</svg>
