<svg width="32" height="32" viewBox="0 0 32 32" fill="none" xmlns="http://www.w3.org/2000/svg">
<g clip-path="url(#clip0_8_362)">
<path d="M15.5556 0.5C6.96559 0.5 0 7.46437 0 16.0556C0 22.9286 4.45715 28.7595 10.6379 30.8164C11.4153 30.9604 11.7008 30.4789 11.7008 30.068C11.7008 29.6972 11.6863 28.4717 11.6797 27.1719C7.35197 28.1129 6.4388 25.3365 6.4388 25.3365C5.7312 23.5385 4.71164 23.0605 4.71164 23.0605C3.30034 22.095 4.81803 22.1147 4.81803 22.1147C6.38011 22.2245 7.20264 23.7178 7.20264 23.7178C8.59002 26.096 10.8417 25.4084 11.7293 25.011C11.8689 24.0055 12.2721 23.3194 12.7169 22.9309C9.26188 22.5375 5.62969 21.2036 5.62969 15.2432C5.62969 13.545 6.23737 12.1572 7.23253 11.0679C7.071 10.676 6.53859 9.09393 7.3832 6.95124C7.3832 6.95124 8.68945 6.53315 11.6621 8.54578C12.9028 8.20101 14.2336 8.02826 15.5556 8.0224C16.8776 8.02826 18.2094 8.20101 19.4525 8.54578C22.4217 6.53315 23.7261 6.95124 23.7261 6.95124C24.5728 9.09393 24.0401 10.676 23.8786 11.0679C24.8759 12.1572 25.4795 13.5449 25.4795 15.2432C25.4795 21.2178 21.8404 22.5334 18.3766 22.9185C18.9345 23.4012 19.4317 24.348 19.4317 25.7991C19.4317 27.8805 19.4136 29.5556 19.4136 30.068C19.4136 30.482 19.6936 30.9671 20.4822 30.8143C26.6596 28.7551 31.1111 22.9263 31.1111 16.0556C31.1111 7.46437 24.1465 0.5 15.5556 0.5Z" fill="#2F2F2F"/>
<path d="M5.82606 22.6594C5.7919 22.7366 5.67014 22.7598 5.55949 22.7068C5.44664 22.6561 5.3832 22.5506 5.4198 22.4731C5.45335 22.3935 5.57511 22.3713 5.68771 22.4247C5.80081 22.4754 5.86522 22.5818 5.82606 22.6594ZM6.59125 23.3421C6.51707 23.4109 6.37201 23.3789 6.27356 23.2702C6.17181 23.1617 6.15278 23.0168 6.22805 22.9469C6.30455 22.8782 6.44521 22.9103 6.5472 23.0189C6.64895 23.1286 6.66885 23.2725 6.59125 23.3421ZM7.11621 24.2156C7.02081 24.2818 6.86489 24.2197 6.76863 24.0814C6.67335 23.9432 6.67335 23.7772 6.77071 23.7107C6.86733 23.6443 7.02081 23.704 7.11841 23.8413C7.21357 23.982 7.21369 24.1478 7.11621 24.2156ZM8.00389 25.2273C7.91861 25.3213 7.73707 25.2961 7.60409 25.1678C7.46818 25.0424 7.43024 24.8644 7.51576 24.7703C7.60202 24.6761 7.78465 24.7026 7.91861 24.8299C8.05366 24.955 8.09478 25.1344 8.00389 25.2273ZM9.15118 25.5689C9.11372 25.6907 8.93877 25.7461 8.76261 25.6943C8.58668 25.641 8.47151 25.4983 8.50702 25.3752C8.54362 25.2526 8.7193 25.1949 8.89681 25.2503C9.07249 25.3033 9.18778 25.445 9.15118 25.5689ZM10.4571 25.7137C10.4615 25.8421 10.312 25.9485 10.1271 25.9508C9.94101 25.9548 9.79058 25.851 9.78863 25.7248C9.78863 25.5953 9.93466 25.4899 10.1206 25.4868C10.3056 25.4832 10.4571 25.5863 10.4571 25.7137ZM11.7398 25.6646C11.762 25.7898 11.6334 25.9183 11.4498 25.9525C11.2692 25.9854 11.1021 25.9082 11.079 25.7841C11.0566 25.6558 11.1876 25.5273 11.3678 25.494C11.5518 25.4621 11.7164 25.5373 11.7398 25.6646Z" fill="#2F2F2F"/>
</g>
<defs>
<clipPath id="clip0_8_362">
<rect width="32" height="31" fill="white" transform="translate(0 0.5)"/>
</clipPath>
</defs>
</svg>
