<svg width="32" height="31" viewBox="0 0 32 31" fill="none" xmlns="http://www.w3.org/2000/svg">
<g clip-path="url(#clip0_8_377)">
<path d="M2.512 21.0333C2.54128 21.0995 2.57438 21.1606 2.61003 21.2217C2.62658 21.2574 2.6495 21.2943 2.66987 21.3274C2.70297 21.3936 2.73862 21.4572 2.773 21.5209L2.97288 21.857C3.0098 21.9194 3.04545 21.9805 3.08747 22.0416C3.15749 22.1613 3.24025 22.2784 3.31282 22.3981C3.34592 22.4478 3.37647 22.4974 3.4134 22.5471C3.55344 22.7648 3.68076 22.9456 3.81699 23.1213C3.91375 23.2524 4.01051 23.381 4.11491 23.5096C4.14928 23.558 4.18748 23.6063 4.22313 23.6547L4.5045 23.9959C4.53887 24.0354 4.57325 24.0812 4.61017 24.122C4.73494 24.2722 4.86735 24.4173 4.99976 24.565C4.99976 24.5676 5.00357 24.5701 5.00612 24.5739C5.17036 24.7802 5.34733 24.9635 5.54085 25.1265L5.54594 25.1316C5.64779 25.236 5.74965 25.3391 5.85787 25.441L5.98646 25.5645C6.12778 25.6969 6.2691 25.828 6.41806 25.9553C6.4206 25.9553 6.42188 25.9579 6.42442 25.9591L6.49699 26.0228C6.62686 26.1361 6.75799 26.2481 6.89167 26.3525L7.05082 26.4862C7.15904 26.5728 7.27108 26.6543 7.38184 26.7396L7.55499 26.872C7.67339 26.9611 7.79944 27.0477 7.92039 27.1343C7.96495 27.1661 8.00951 27.1979 8.05534 27.2272L8.09226 27.2565L8.45002 27.4907L8.6028 27.5926C8.78996 27.7123 8.97584 27.8243 9.16172 27.9364C9.21519 27.9631 9.26867 27.9924 9.31832 28.0229C9.45582 28.1019 9.59841 28.1821 9.73719 28.2546C9.81358 28.2979 9.89252 28.3348 9.97145 28.3743C10.0669 28.4278 10.1663 28.48 10.2681 28.5335C10.2961 28.5424 10.319 28.5513 10.3419 28.564L10.347 28.5589C10.3891 28.578 10.4285 28.5984 10.4693 28.6188C10.622 28.6952 10.7812 28.7677 10.9467 28.839C10.9773 28.8518 11.0104 28.8645 11.0435 28.8823C11.2268 28.9625 11.4101 29.0389 11.5998 29.1128C11.6431 29.1255 11.6889 29.1471 11.7335 29.1637C11.9054 29.2286 12.0824 29.2948 12.2581 29.3572L12.3217 29.3801C12.5165 29.4463 12.7087 29.51 12.9074 29.5698C12.9532 29.5825 13.0003 29.5991 13.0487 29.6118C13.2511 29.6729 13.4472 29.7455 13.6522 29.7837C26.7314 32.1556 30.5317 21.9589 30.5317 21.9589C27.3386 26.0966 21.6718 27.1877 16.3054 25.9731C16.1068 25.9273 15.9082 25.8636 15.707 25.8051C15.4231 25.7247 15.1416 25.636 14.8629 25.539L14.9839 25.5759L14.905 25.5454C14.7318 25.4868 14.565 25.4219 14.3957 25.3569C14.3542 25.3394 14.3122 25.3232 14.2696 25.3086L14.2556 25.3047C14.0685 25.2296 13.8864 25.1532 13.7056 25.073C13.6662 25.0603 13.6331 25.0425 13.5936 25.0272C13.3795 24.9339 13.1672 24.8362 12.957 24.7344L13.1327 24.812C13.0869 24.7917 13.0418 24.7697 12.9978 24.7458C12.8781 24.6898 12.7584 24.6261 12.6413 24.5663C12.5521 24.524 12.4642 24.479 12.3777 24.4313L12.4032 24.4441C12.2593 24.3677 12.1155 24.2849 11.9703 24.2073C11.927 24.1767 11.8774 24.1512 11.8277 24.1232C11.612 23.9978 11.3989 23.868 11.1886 23.7337L11.2688 23.782C11.2149 23.7487 11.1623 23.7135 11.1109 23.6764L11.1186 23.6815C10.9817 23.5974 10.8476 23.5091 10.7163 23.4166C10.673 23.3886 10.6335 23.3581 10.5889 23.3275C10.4518 23.2339 10.3168 23.1371 10.1841 23.0372L10.2146 23.0589C10.1612 23.0156 10.1039 22.9748 10.0466 22.9328C9.93453 22.845 9.82122 22.761 9.70918 22.6693L9.55895 22.5496C9.39883 22.4222 9.24177 22.291 9.08788 22.1562L9.0866 22.1549L8.64482 21.7539L8.5175 21.6342C8.4131 21.5285 8.30616 21.428 8.19921 21.3236L8.07571 21.1962C7.9439 21.0657 7.81527 20.932 7.68995 20.7952L7.68231 20.7863L7.66066 20.7685C7.52586 20.6204 7.39301 20.4706 7.26216 20.319C7.22779 20.2796 7.19596 20.2376 7.16031 20.1955L6.8713 19.8454C6.74102 19.6818 6.61369 19.5158 6.48935 19.3476L6.43843 19.2763C3.46178 15.2328 2.38468 9.6525 4.76677 5.07422L2.6635 7.73385C-0.0419641 11.603 0.292878 16.6345 2.36176 20.743C2.40887 20.8436 2.46107 20.9378 2.512 21.0333Z" fill="#01629B"/>
<path d="M11.6262 15.4586L11.611 15.4386L11.5986 15.4236L11.6262 15.4586Z" fill="#282828"/>
<path d="M13.0475 17.1295L13.162 17.2441C13.3072 17.3841 13.4561 17.5204 13.6077 17.6566L13.6268 17.6731C13.7795 17.8081 13.9514 17.9494 14.1284 18.0869L14.1551 18.1073C14.1984 18.1366 14.2353 18.171 14.2773 18.2002C14.4556 18.3377 14.6351 18.4689 14.8222 18.6L14.8413 18.6115C14.9203 18.6688 15.0043 18.721 15.0934 18.777C15.1291 18.7999 15.1698 18.8304 15.208 18.8534C15.343 18.9399 15.4754 19.0201 15.6116 19.1029C15.6333 19.1118 15.6523 19.1233 15.6727 19.1322C15.7873 19.2022 15.9121 19.2697 16.0318 19.3308C16.0738 19.3563 16.1145 19.3754 16.1578 19.3996C16.2431 19.4416 16.3271 19.4861 16.4086 19.5294L16.4493 19.5472C16.6212 19.6313 16.7969 19.7102 16.9688 19.7879C17.0121 19.8044 17.049 19.8184 17.0859 19.8362C17.2272 19.8974 17.3711 19.9559 17.5124 20.0094C17.5761 20.031 17.6359 20.0565 17.6958 20.0756C17.8256 20.124 17.9619 20.1685 18.0905 20.2131L18.2687 20.2704C18.4546 20.3277 18.643 20.4028 18.8403 20.4334C28.9403 22.0961 31.2778 14.3591 31.2778 14.3591C29.1733 17.3727 25.1005 18.8088 20.7603 17.6871C20.5436 17.6325 20.3288 17.5709 20.116 17.5025L20.1886 17.5229C20.1275 17.5064 20.074 17.4873 20.0155 17.4694C19.8831 17.4236 19.7468 17.379 19.6182 17.3319L19.4349 17.2632C19.2923 17.2059 19.1472 17.1524 19.0084 17.0913C18.9651 17.0722 18.9256 17.0595 18.8925 17.0404C18.7143 16.9602 18.5348 16.8812 18.3604 16.7972L18.0981 16.661L17.9466 16.5846C17.8295 16.5235 17.7212 16.4598 17.6092 16.3949C17.5806 16.3815 17.553 16.3662 17.5264 16.3491L17.5303 16.3503C17.3953 16.2663 17.2553 16.1848 17.1254 16.0995C17.0821 16.0753 17.0426 16.046 17.0019 16.0206L16.7371 15.8487C16.5537 15.7214 16.3742 15.5852 16.1922 15.4528C16.1514 15.4158 16.112 15.3853 16.0725 15.3522C14.164 13.8588 12.6591 11.8179 11.9449 9.50709C11.1925 7.10464 11.358 4.41063 12.6579 2.22461L11.0601 4.47556C9.09811 7.27779 9.20887 11.0234 10.7367 13.9873C11.0155 14.5348 11.2981 14.997 11.6101 15.4375C11.9003 15.8525 12.2212 16.3389 12.6082 16.6724C12.7457 16.829 12.8934 16.978 13.0475 17.1295Z" fill="#01629B"/>
<path d="M18.1209 2.03886C16.9636 3.72835 16.8528 5.82651 17.6498 7.68915C18.4964 9.66764 20.2267 11.2209 22.2434 11.9568C22.3261 11.9886 22.4063 12.0153 22.4916 12.0459L22.6037 12.0803C22.7208 12.1172 22.8392 12.1605 22.9602 12.1872C28.5379 13.258 30.0478 9.33789 30.454 8.76115C29.1261 10.6582 26.8993 11.114 24.1671 10.4532C23.9295 10.3952 23.6957 10.323 23.4669 10.2367L23.5089 10.2507C23.2242 10.1522 22.9453 10.0374 22.6737 9.90699L22.7221 9.92864C22.2001 9.67401 21.7519 9.399 21.3356 9.08326C18.8937 7.23718 17.3837 3.72198 18.9777 0.858643L18.1209 2.03886Z" fill="#01629B"/>
</g>
<defs>
<clipPath id="clip0_8_377">
<rect width="31" height="31" fill="white" transform="translate(0.5)"/>
</clipPath>
</defs>
</svg>
