<svg width="33" height="32" viewBox="0 0 33 32" fill="none" xmlns="http://www.w3.org/2000/svg">
<g clip-path="url(#clip0_8_361)">
<path d="M32.7932 0H0V31.1111H32.7932V0Z" fill="#F7DF1E"/>
<path d="M22.0287 24.3057C22.6892 25.3289 23.5486 26.081 25.0686 26.081C26.3454 26.081 27.1611 25.4756 27.1611 24.639C27.1611 23.6366 26.323 23.2815 24.9176 22.6983L24.1472 22.3847C21.9235 21.4859 20.4463 20.36 20.4463 17.9798C20.4463 15.7872 22.2072 14.118 24.9592 14.118C26.9185 14.118 28.327 14.765 29.3421 16.4588L26.9424 17.9205C26.4141 17.0217 25.8441 16.6677 24.9592 16.6677C24.0566 16.6677 23.4846 17.2109 23.4846 17.9205C23.4846 18.7975 24.0572 19.1526 25.3793 19.6958L26.1497 20.0089C28.7679 21.0741 30.2462 22.16 30.2462 24.6015C30.2462 27.2336 28.0668 28.6756 25.1399 28.6756C22.278 28.6756 20.4291 27.3817 19.5244 25.6859L22.0287 24.3057ZM11.1429 24.559C11.627 25.3738 12.0674 26.0627 13.1261 26.0627C14.1385 26.0627 14.7772 25.6869 14.7772 24.2257V14.285H17.8587V24.2652C17.8587 27.2924 15.988 28.6701 13.2573 28.6701C10.79 28.6701 9.36118 27.4588 8.63452 25.9998L11.1429 24.559Z" fill="#282828"/>
</g>
<defs>
<clipPath id="clip0_8_361">
<rect width="33" height="32" fill="white"/>
</clipPath>
</defs>
</svg>
