<svg width="115" height="123" viewBox="0 0 115 123" fill="none" xmlns="http://www.w3.org/2000/svg">
<g clip-path="url(#clip0_8_431)">
<path d="M53.0724 13.8259C23.7651 13.8259 0 38.3534 0 68.6103C0 92.816 15.2069 113.352 36.2943 120.596C38.9466 121.103 39.9206 119.407 39.9206 117.96C39.9206 116.654 39.8712 112.338 39.8487 107.76C25.0834 111.074 21.9678 101.296 21.9678 101.296C19.5536 94.964 16.0751 93.2805 16.0751 93.2805C11.2601 89.8802 16.4381 89.9496 16.4381 89.9496C21.7676 90.3363 24.5739 95.5954 24.5739 95.5954C29.3073 103.971 36.9896 101.549 40.0179 100.15C40.4942 96.6087 41.8698 94.1923 43.3874 92.8241C31.5996 91.4386 19.2073 86.7408 19.2073 65.7492C19.2073 59.7684 21.2806 54.8808 24.6759 51.0444C24.1248 49.6642 22.3083 44.0924 25.1899 36.5462C25.1899 36.5462 29.6466 35.0738 39.7886 42.1619C44.0216 40.9477 48.562 40.3393 53.0724 40.3187C57.5828 40.3393 62.1266 40.9477 66.3678 42.1619C76.4981 35.0738 80.9484 36.5462 80.9484 36.5462C83.8372 44.0924 82.0197 49.6642 81.4687 51.0444C84.8713 54.8808 86.9306 59.7681 86.9306 65.7492C86.9306 86.7908 74.5148 91.4242 62.6971 92.7804C64.6005 94.4804 66.2968 97.8149 66.2968 102.925C66.2968 110.256 66.2351 116.155 66.2351 117.96C66.2351 119.418 67.1904 121.126 69.8809 120.588C90.9569 113.336 106.144 92.8079 106.144 68.6103C106.144 38.3534 82.3827 13.8259 53.0724 13.8259Z" fill="#DBDBDB"/>
<path d="M19.8773 91.868C19.7608 92.1398 19.3454 92.2215 18.9679 92.0349C18.5828 91.8563 18.3664 91.4848 18.4913 91.2118C18.6057 90.9315 19.0212 90.8533 19.4053 91.0414C19.7912 91.2199 20.011 91.5947 19.8773 91.868ZM22.488 94.2723C22.2349 94.5146 21.74 94.4019 21.4041 94.0191C21.057 93.637 20.992 93.1267 21.2489 92.8805C21.5099 92.6385 21.9898 92.7516 22.3377 93.1341C22.6849 93.5204 22.7528 94.0272 22.488 94.2723ZM24.2791 97.3486C23.9536 97.5818 23.4216 97.3631 23.0932 96.876C22.7681 96.3893 22.7681 95.8047 23.1003 95.5705C23.4299 95.3366 23.9536 95.5469 24.2866 96.0304C24.6112 96.5259 24.6116 97.1099 24.2791 97.3486ZM27.3076 100.912C27.0167 101.243 26.3973 101.154 25.9436 100.702C25.4799 100.261 25.3505 99.6336 25.6422 99.3022C25.9365 98.9705 26.5596 99.0638 27.0167 99.5121C27.4774 99.9527 27.6177 100.585 27.3076 100.912ZM31.222 102.115C31.0941 102.544 30.4973 102.739 29.8962 102.556C29.296 102.369 28.9031 101.866 29.0242 101.433C29.1491 101.001 29.7485 100.798 30.3541 100.993C30.9535 101.179 31.3468 101.678 31.222 102.115ZM35.6774 102.625C35.6924 103.077 35.1824 103.452 34.5515 103.46C33.9167 103.474 33.4034 103.108 33.3968 102.664C33.3968 102.208 33.895 101.837 34.5293 101.826C35.1605 101.813 35.6774 102.176 35.6774 102.625ZM40.0537 102.452C40.1295 102.893 39.6907 103.345 39.0643 103.466C38.4481 103.582 37.878 103.31 37.7992 102.873C37.7228 102.421 38.1697 101.968 38.7845 101.851C39.4123 101.739 39.9739 102.003 40.0537 102.452Z" fill="#DBDBDB"/>
</g>
<circle cx="94.8967" cy="19.9251" r="19.9283" fill="#0877B9"/>
<path d="M106.872 18.4441V21.1886H82.6331V18.4441H106.872ZM96.1125 7.15057V32.895H93.198V7.15057H96.1125Z" fill="#DBDBDB"/>
<defs>
<clipPath id="clip0_8_431">
<rect width="109.177" height="109.177" fill="white" transform="translate(0 13.8259)"/>
</clipPath>
</defs>
</svg>
