<svg width="33" height="32" viewBox="0 0 33 32" fill="none" xmlns="http://www.w3.org/2000/svg">
<g clip-path="url(#clip0_8_356)">
<path d="M30.2059 24.4762C28.4217 24.4333 27.0388 24.6052 25.8791 25.0776C25.5445 25.2064 25.0091 25.2065 24.9645 25.6147C25.143 25.7865 25.1653 26.0658 25.3214 26.3019C25.5893 26.7314 26.0574 27.3114 26.4812 27.6123C26.9495 27.9559 27.418 28.2994 27.9085 28.6002C28.7785 29.1157 29.7599 29.4163 30.6074 29.9319C31.0983 30.2323 31.5886 30.6192 32.0794 30.9413C32.3247 31.1129 32.4808 31.3924 32.7932 31.4997V31.4354C32.6369 31.2419 32.5923 30.9628 32.4363 30.748C32.2135 30.5332 31.9901 30.3399 31.7671 30.1251C31.1203 29.2875 30.3174 28.5572 29.4476 27.9558C28.734 27.4833 27.1726 26.839 26.8827 26.0442C26.8827 26.0442 26.8603 26.0228 26.8381 26.0013C27.3287 25.9584 27.9085 25.7865 28.3771 25.6576C29.1354 25.4642 29.8267 25.5073 30.6074 25.3139C30.9642 25.228 31.3211 25.1206 31.6779 25.0132V24.82C31.2766 24.4333 30.9866 23.9179 30.5628 23.5527C29.4253 22.6075 28.1762 21.684 26.8827 20.9108C26.1912 20.4812 25.299 20.202 24.563 19.8369C24.2956 19.7079 23.8493 19.6436 23.6933 19.4288C23.2917 18.9563 23.0686 18.3335 22.7788 17.775C22.1322 16.5935 21.5075 15.2834 20.9498 14.0378C20.5486 13.2 20.3032 12.3623 19.8125 11.5892C17.5152 7.93783 15.0172 5.72554 11.181 3.55609C10.3557 3.10511 9.37439 2.91178 8.32613 2.67561C7.76874 2.65401 7.21096 2.61117 6.65343 2.58957C6.29654 2.4392 5.93964 2.03119 5.62736 1.83786C4.3563 1.06454 1.07744 -0.6106 0.140712 1.60169C-0.461551 2.99771 1.03295 4.37224 1.54574 5.08123C1.92519 5.57517 2.41567 6.13355 2.68334 6.69206C2.83949 7.05699 2.88397 7.44389 3.04011 7.83042C3.39714 8.77522 3.73147 9.82791 4.20003 10.7086C4.44539 11.1596 4.71294 11.6321 5.02522 12.0402C5.20367 12.2764 5.51583 12.3839 5.58287 12.7704C5.27072 13.2 5.24828 13.8445 5.06971 14.3814C4.26682 16.8085 4.57923 19.8154 5.71658 21.5981C6.07335 22.1349 6.92098 23.3166 8.05846 22.8654C9.06223 22.4788 8.83917 21.2545 9.12889 20.1806C9.19607 19.9226 9.15145 19.751 9.28516 19.5791V19.6222C9.59745 20.2234 9.9096 20.8036 10.1996 21.4049C10.8911 22.4572 12.0953 23.5527 13.099 24.2831C13.6345 24.6695 14.0581 25.3354 14.7273 25.5717V25.5071H14.6826C14.5487 25.3138 14.348 25.228 14.1697 25.0775C13.7683 24.6911 13.322 24.2185 13.0099 23.7889C12.0733 22.586 11.2478 21.2544 10.5119 19.8798C10.1551 19.2141 9.84268 18.4837 9.55283 17.818C9.41887 17.5599 9.41887 17.1735 9.19594 17.0448C8.86135 17.5172 8.37074 17.9254 8.12538 18.5052C7.70182 19.4288 7.65708 20.5671 7.50094 21.7483C7.41171 21.7701 7.4562 21.7484 7.41158 21.7916C6.69805 21.6195 6.45268 20.9108 6.18488 20.3094C5.5157 18.7845 5.40417 16.3359 5.98425 14.5747C6.1404 14.1236 6.80958 12.7061 6.5419 12.2765C6.40807 11.8683 5.96182 11.6321 5.71658 11.31C5.42673 10.9018 5.11432 10.3865 4.91369 9.93531C4.37835 8.7325 4.11067 7.40081 3.53085 6.198C3.26317 5.63949 2.795 5.05975 2.41567 4.54421C1.99198 3.96435 1.52356 3.55609 1.18897 2.86882C1.07757 2.63265 0.921295 2.246 1.09974 1.98822C1.14436 1.81638 1.23345 1.75206 1.41203 1.7091C1.70201 1.47268 2.52733 1.77342 2.81705 1.9023C3.64238 2.22427 4.33373 2.52525 5.02522 2.97622C5.33738 3.19103 5.67197 3.59917 6.07335 3.70658H6.54178C7.25557 3.85682 8.05833 3.74954 8.72751 3.94274C9.90973 4.3078 10.9802 4.84482 11.9393 5.42481C14.8612 7.20748 17.2697 9.74198 18.898 12.7704C19.1657 13.2642 19.2771 13.7156 19.5225 14.2309C19.991 15.2834 20.5709 16.3574 21.039 17.3883C21.5075 18.3977 21.9535 19.4288 22.6226 20.2665C22.9572 20.7174 24.2953 20.9538 24.8976 21.1901C25.3437 21.3833 26.0352 21.5553 26.4366 21.7914C27.1949 22.2423 27.9531 22.7581 28.6669 23.2519C29.0238 23.5097 30.1389 24.0467 30.2059 24.4762Z" fill="#2E2E2E"/>
<path d="M7.45604 5.81122C7.07696 5.81122 6.80942 5.85443 6.54175 5.91875V5.96171H6.58636C6.76494 6.3054 7.07696 6.54169 7.2999 6.8423C7.47847 7.18587 7.63449 7.52969 7.81306 7.87339C7.83524 7.85178 7.85755 7.83043 7.85755 7.83043C8.16996 7.61549 8.32597 7.27192 8.32597 6.75638C8.19214 6.60614 8.16983 6.45577 8.0583 6.3054C7.92459 6.09047 7.63449 5.98319 7.45604 5.81122Z" fill="#2E2E2E"/>
</g>
<defs>
<clipPath id="clip0_8_356">
<rect width="33" height="31" fill="white" transform="translate(0 0.5)"/>
</clipPath>
</defs>
</svg>
