<svg width="32" height="31" viewBox="0 0 32 31" fill="none" xmlns="http://www.w3.org/2000/svg">
<path fill-rule="evenodd" clip-rule="evenodd" d="M18.6151 0.282227C18.4021 0.282227 18.2044 0.329574 18.0219 0.392701C18.4097 0.660995 18.6227 1.01609 18.7291 1.41853C18.7367 1.47377 18.7519 1.51323 18.7595 1.56846C18.7672 1.61581 18.7747 1.66316 18.7747 1.7105C18.8052 2.40491 18.5998 2.49171 18.4554 2.90204C18.2349 3.43074 18.2957 3.9989 18.5618 4.45658C18.5846 4.51181 18.6151 4.57494 18.6531 4.63018C18.3641 2.63375 19.9686 2.33389 20.2651 1.7105C20.288 1.16602 19.8545 0.803034 19.5123 0.550521C19.1854 0.345355 18.8888 0.282227 18.6151 0.282227ZM21.0332 0.732015C21.0027 0.913508 21.0255 0.866162 21.018 0.960855C21.0103 1.02398 21.0103 1.10289 21.0028 1.16602C20.9876 1.22915 20.9723 1.29228 20.9495 1.35541C20.9343 1.41853 20.9115 1.48166 20.8887 1.54479C20.8583 1.60792 20.8355 1.66315 20.8051 1.72628C20.7822 1.75786 20.767 1.78941 20.7442 1.82098C20.729 1.84465 20.7138 1.86832 20.6986 1.892C20.6606 1.94723 20.6226 2.00247 20.5845 2.04981C20.5389 2.09716 20.5009 2.1524 20.4477 2.19186V2.19976C20.402 2.23921 20.3564 2.28656 20.3032 2.32601C20.1435 2.45227 19.961 2.54696 19.7937 2.66533C19.7405 2.70478 19.6873 2.73635 19.6416 2.78369C19.5884 2.82315 19.5428 2.8626 19.4972 2.90995C19.4439 2.95729 19.4059 3.00464 19.3603 3.05988C19.3223 3.10722 19.2766 3.16246 19.2462 3.2177C19.2082 3.27293 19.1702 3.32817 19.1398 3.38341C19.1093 3.44653 19.0865 3.50177 19.0561 3.5649C19.0333 3.62803 19.0105 3.68327 18.9953 3.74639C18.9725 3.81741 18.9573 3.88054 18.9421 3.94367C18.9344 3.97525 18.9344 4.01469 18.9269 4.04625C18.9192 4.07783 18.9192 4.10938 18.9117 4.14095C18.9117 4.20407 18.9041 4.27509 18.9041 4.33822C18.9041 4.38557 18.9041 4.43291 18.9117 4.48026C18.9117 4.54339 18.9193 4.60651 18.9345 4.67753C18.9421 4.74066 18.9573 4.80379 18.9725 4.86692C18.9953 4.93005 19.0105 4.99318 19.0333 5.0563C19.0485 5.09576 19.0713 5.13521 19.0866 5.16678L17.3376 4.46448C17.0411 4.37768 16.7521 4.29877 16.4555 4.22775C16.2959 4.18829 16.1362 4.14884 15.9765 4.10938C15.5202 4.01469 15.0564 3.94367 14.5926 3.89633C14.5774 3.89633 14.5697 3.88842 14.5545 3.88842C14.0983 3.84108 13.6496 3.81741 13.1934 3.81741C12.8588 3.81741 12.5242 3.83317 12.1973 3.85686C11.7334 3.88844 11.2696 3.95155 10.8057 4.03046C10.6917 4.04623 10.5776 4.06992 10.4635 4.09359C10.2278 4.14094 9.99969 4.19617 9.77917 4.25141C9.66511 4.28299 9.55105 4.31454 9.43699 4.3461C9.32293 4.39345 9.21647 4.44869 9.11001 4.49603C9.02637 4.53549 8.94272 4.57494 8.85908 4.6144C8.84388 4.6223 8.82865 4.6223 8.82106 4.63017C8.74502 4.66962 8.67658 4.70118 8.60815 4.74064C8.58533 4.74854 8.57012 4.75641 8.55492 4.76432C8.47127 4.80377 8.38763 4.85112 8.31919 4.89057C8.26596 4.91424 8.21274 4.94581 8.16711 4.96948C8.1443 4.98525 8.11388 5.00106 8.09867 5.00894C8.03024 5.04839 7.9618 5.08785 7.90097 5.1273C7.83253 5.16676 7.7717 5.20621 7.71847 5.24566C7.66524 5.28512 7.61201 5.31669 7.56639 5.35614C7.55877 5.36404 7.55119 5.36404 7.54357 5.37191C7.49795 5.40349 7.44472 5.44293 7.3991 5.48239C7.3991 5.48239 7.39148 5.49029 7.3839 5.49816C7.34588 5.52973 7.30786 5.56128 7.26984 5.59285C7.25464 5.60075 7.23941 5.61652 7.22422 5.62442C7.1862 5.656 7.14818 5.69544 7.11016 5.72701C7.10254 5.74278 7.08734 5.75068 7.07973 5.75858C7.0341 5.80593 6.98848 5.84538 6.94285 5.89273C6.93524 5.89273 6.93524 5.90063 6.92766 5.9085C6.88203 5.94796 6.83641 5.9953 6.79078 6.04265C6.78317 6.05055 6.78317 6.05842 6.77559 6.05842C6.73757 6.09787 6.69955 6.13733 6.66153 6.18467C6.64633 6.20044 6.62351 6.21625 6.6083 6.23202C6.57028 6.27937 6.52465 6.32671 6.47903 6.37406C6.47141 6.38983 6.45622 6.39773 6.4486 6.41351C6.38777 6.47664 6.33454 6.53977 6.27371 6.6029C6.26609 6.6108 6.25851 6.61867 6.2509 6.62657C6.12923 6.76072 5.99996 6.89487 5.86309 7.01323C5.72621 7.13949 5.58174 7.25785 5.43726 7.36043C5.28518 7.47091 5.1407 7.5656 4.98101 7.66029C4.82893 7.74709 4.66925 7.82601 4.50196 7.89703C4.34227 7.96804 4.17498 8.03117 4.00769 8.08641C3.68832 8.15743 3.36135 8.29157 3.08 8.31525C3.01916 8.31525 2.95073 8.33102 2.88989 8.33892C2.82146 8.35469 2.76063 8.3705 2.69979 8.38627C2.63896 8.40994 2.57813 8.43361 2.5173 8.45729C2.45646 8.48096 2.39563 8.51252 2.3348 8.54409C2.28157 8.58354 2.22074 8.61511 2.16751 8.65456C2.11428 8.69402 2.06105 8.74136 2.01543 8.78871C1.9622 8.82817 1.90897 8.8834 1.86334 8.93075C1.81772 8.98599 1.7721 9.03333 1.73408 9.08857C1.69606 9.15169 1.65043 9.20693 1.62001 9.27006C1.58199 9.3253 1.54397 9.38843 1.51356 9.45155C1.48313 9.52258 1.45273 9.5857 1.42991 9.65672C1.4071 9.71985 1.38429 9.79087 1.36148 9.86189C1.34628 9.92502 1.33105 9.98814 1.32346 10.0513C1.32346 10.0592 1.31584 10.067 1.31584 10.0749C1.30064 10.146 1.30064 10.2407 1.29303 10.288C1.28541 10.3432 1.27783 10.3906 1.27783 10.4458C1.27783 10.4774 1.27783 10.5168 1.28545 10.5484C1.29306 10.6036 1.30064 10.651 1.31588 10.6983C1.33107 10.7457 1.34631 10.793 1.3691 10.8404V10.8483C1.39192 10.8956 1.42233 10.943 1.45275 10.9903C1.48318 11.0377 1.51358 11.085 1.5516 11.1324C1.58962 11.1718 1.63525 11.2192 1.68087 11.2586C1.7265 11.306 1.77212 11.3454 1.82535 11.3849C2.00785 11.5506 2.05347 11.6058 2.2892 11.7321C2.32722 11.7557 2.36524 11.7715 2.41086 11.7952C2.41848 11.7952 2.42606 11.8031 2.43368 11.8031C2.43368 11.8189 2.43368 11.8268 2.44129 11.8426C2.44891 11.9057 2.46411 11.9688 2.47931 12.0319C2.49451 12.103 2.51734 12.1661 2.54015 12.2213C2.56296 12.2687 2.57817 12.316 2.60098 12.3634C2.6086 12.3791 2.61618 12.3949 2.62379 12.4028C2.65422 12.466 2.68462 12.5212 2.71504 12.5764C2.75306 12.6317 2.79108 12.6869 2.8291 12.7421C2.86712 12.7895 2.91274 12.8447 2.95837 12.8921C3.00399 12.9394 3.04962 12.9789 3.10285 13.0262C3.10285 13.0262 3.11047 13.0341 3.11804 13.0341C3.16367 13.0736 3.20929 13.113 3.25492 13.1446C3.30815 13.1841 3.36138 13.2156 3.42221 13.2472C3.47544 13.2788 3.53627 13.3103 3.5971 13.334C3.64273 13.3577 3.69595 13.3734 3.74918 13.3892C3.7568 13.3971 3.76438 13.3971 3.77961 13.405C3.81004 13.4129 3.84804 13.4208 3.87846 13.4287C3.85565 13.8548 3.84803 14.2572 3.90889 14.3993C3.97732 14.5571 4.31191 14.0757 4.64649 13.5234C4.60086 14.0678 4.57044 14.707 4.64649 14.8964C4.73013 15.0937 5.18637 14.4782 5.58179 13.7995C10.9731 12.5054 15.8929 16.372 16.41 21.8326C16.3111 20.9804 15.2998 20.5069 14.8359 20.6253C14.6078 21.2092 14.22 21.9589 13.5965 22.4244C13.6497 21.9036 13.6269 21.367 13.5204 20.8462C13.3531 21.5722 13.0262 22.2508 12.5775 22.8348C11.8551 22.89 11.1328 22.527 10.7526 21.9825C10.7221 21.9589 10.7145 21.9115 10.6917 21.8799C10.6689 21.8247 10.6461 21.7695 10.6309 21.7142C10.6081 21.659 10.5929 21.6038 10.5853 21.5485C10.5776 21.4933 10.5776 21.438 10.5776 21.3749C10.5776 21.3355 10.5776 21.296 10.5776 21.2566C10.5853 21.2013 10.6005 21.1461 10.6157 21.0908C10.6309 21.0356 10.6461 20.9804 10.6689 20.9251C10.6993 20.8699 10.7221 20.8147 10.7601 20.7594C10.8894 20.3806 10.8894 20.0729 10.6537 19.8914C10.6081 19.8598 10.5624 19.8362 10.5092 19.8125C10.4788 19.8046 10.4408 19.7888 10.4104 19.7809C10.3876 19.773 10.3723 19.7651 10.3495 19.7572C10.2963 19.7415 10.2431 19.7257 10.1898 19.7178C10.1366 19.702 10.0834 19.6941 10.0302 19.6941C9.97693 19.6862 9.91609 19.6783 9.86286 19.6783C9.82484 19.6783 9.78682 19.6862 9.7488 19.6862C9.68797 19.6862 9.63474 19.6942 9.58151 19.7099C9.52828 19.7178 9.47506 19.7257 9.42183 19.7415C9.3686 19.7573 9.31537 19.7731 9.26214 19.7967C9.20891 19.8204 9.16329 19.8441 9.11006 19.8678C9.06444 19.8914 9.01881 19.923 8.96558 19.9467C7.19383 21.1461 8.2508 23.9553 9.45985 24.7681C9.0036 24.8549 8.53976 24.9575 8.41049 25.06C8.40287 25.0679 8.39529 25.0758 8.39529 25.0758C8.72227 25.281 9.06445 25.4546 9.42184 25.6045C9.9085 25.7702 10.4256 25.9202 10.6537 25.9833V25.9912C11.2848 26.1253 11.9236 26.1727 12.5699 26.1332C15.9385 25.8886 18.6988 23.2293 19.2007 19.7257C19.2159 19.7967 19.2311 19.8599 19.2463 19.9309C19.2691 20.0729 19.2995 20.2228 19.3147 20.3728V20.3807C19.3299 20.4517 19.3375 20.5227 19.3452 20.5859V20.6174C19.3528 20.6885 19.3604 20.7595 19.3604 20.8226C19.368 20.9094 19.3756 20.9962 19.3756 21.083V21.2093C19.3756 21.2487 19.3832 21.2961 19.3832 21.3355C19.3832 21.3829 19.3756 21.4302 19.3756 21.4776V21.588C19.3756 21.6433 19.3679 21.6906 19.3679 21.7458C19.3679 21.7774 19.3679 21.809 19.3603 21.8484C19.3603 21.9037 19.3527 21.9589 19.3527 22.022C19.3451 22.0457 19.3451 22.0694 19.3451 22.0931C19.3375 22.1562 19.3299 22.2114 19.3223 22.2745C19.3223 22.2982 19.3223 22.3219 19.3147 22.3456C19.307 22.4245 19.2918 22.4955 19.2842 22.5744V22.5823V22.5902C19.269 22.6612 19.2538 22.7401 19.2386 22.8112V22.8348C19.2234 22.9059 19.2082 22.9769 19.193 23.0479C19.193 23.0558 19.1854 23.0716 19.1854 23.0795C19.1702 23.1505 19.1549 23.2215 19.1321 23.2925V23.3162C19.1093 23.3951 19.0865 23.4661 19.0713 23.5372C19.0637 23.5451 19.0637 23.5529 19.0637 23.5529C19.0409 23.6318 19.0181 23.7107 18.9953 23.7897C18.9648 23.8686 18.942 23.9396 18.9116 24.0185C18.8812 24.0974 18.8584 24.1763 18.828 24.2473C18.7975 24.3262 18.7671 24.3973 18.7367 24.4762H18.7291C18.6987 24.5472 18.6683 24.6261 18.6302 24.6971C18.6226 24.7208 18.615 24.7366 18.6074 24.7524C18.5998 24.7603 18.5998 24.7681 18.5922 24.776C18.098 25.8098 17.368 26.7172 16.4555 27.4274C16.3947 27.4669 16.3338 27.5142 16.273 27.5616C16.2578 27.5773 16.235 27.5852 16.2198 27.601C16.1665 27.6405 16.1133 27.6799 16.0525 27.7194L16.0753 27.7667H16.0829C16.1894 27.751 16.2958 27.7352 16.4023 27.7194H16.4099C16.6076 27.6878 16.8053 27.6484 17.003 27.6089C17.0562 27.601 17.1171 27.5852 17.1703 27.5694C17.2083 27.5615 17.2387 27.5537 17.2767 27.5458C17.33 27.5379 17.3832 27.5221 17.4364 27.5142C17.4821 27.4984 17.5277 27.4905 17.5733 27.4747C18.3337 27.2854 19.0713 27.025 19.7785 26.7172C18.5694 28.4296 16.9498 29.8105 15.0564 30.718C15.9308 30.6548 16.8053 30.5049 17.6493 30.2524C20.7138 29.3133 23.2916 27.1749 24.8352 24.2947C24.5234 26.1175 23.8239 27.8535 22.7897 29.3686C23.5273 28.8636 24.2041 28.2796 24.82 27.6168C26.5233 25.7703 27.6411 23.4267 28.0213 20.9094C28.2798 22.1562 28.3559 23.4424 28.2418 24.7129C33.732 16.7666 28.6981 8.52841 26.5917 6.35838C26.5841 6.34261 26.5765 6.33471 26.5765 6.31893C26.5689 6.32683 26.5689 6.32683 26.5689 6.3347C26.5689 6.32679 26.5689 6.32679 26.5613 6.31893C26.5613 6.41362 26.5537 6.50831 26.5461 6.603C26.5233 6.78449 26.5005 6.9581 26.4701 7.1317C26.432 7.3053 26.3864 7.4789 26.3408 7.65251C26.2876 7.81822 26.2267 7.99182 26.1583 8.15753C26.0899 8.31535 26.0138 8.48106 25.9302 8.63888C25.8465 8.78881 25.7553 8.94663 25.6564 9.08867C25.5576 9.2386 25.4511 9.38064 25.3447 9.51478C25.2306 9.65682 25.1089 9.78308 24.9873 9.90934C24.9112 9.98036 24.8428 10.0435 24.7667 10.1066C24.7059 10.1619 24.6527 10.2092 24.5919 10.2644C24.455 10.3749 24.3181 10.4775 24.166 10.5722C24.0216 10.6669 23.8695 10.7616 23.7174 10.8405C23.5577 10.9194 23.398 10.9904 23.2383 11.0614C23.0786 11.1246 22.9114 11.1798 22.7441 11.2271C22.5768 11.2745 22.4019 11.3139 22.2346 11.3455C22.0597 11.3771 21.8848 11.3928 21.7175 11.4086C21.5959 11.4165 21.4742 11.4244 21.3525 11.4244C21.1776 11.4244 21.0027 11.4086 20.8354 11.3928C20.6606 11.3771 20.4857 11.3534 20.3184 11.3139C20.1435 11.2823 19.9762 11.235 19.8089 11.1798H19.8013C19.9686 11.164 20.1359 11.1482 20.3032 11.1166C20.478 11.0851 20.6453 11.0456 20.8126 10.9983C20.9799 10.9509 21.1472 10.8957 21.3069 10.8326C21.4742 10.7694 21.6339 10.6905 21.7859 10.6116C21.9456 10.5327 22.0901 10.4459 22.2422 10.3512C22.3867 10.2486 22.5311 10.146 22.668 10.0356C22.8049 9.92509 22.9342 9.80673 23.0558 9.68047C23.1851 9.5621 23.2992 9.42796 23.4132 9.29381C23.5273 9.15178 23.6337 9.00974 23.7326 8.8677C23.7478 8.84402 23.763 8.81246 23.7782 8.78879C23.8543 8.66253 23.9303 8.53627 23.9987 8.41002C24.0824 8.2522 24.1584 8.09437 24.2268 7.92867C24.2953 7.76295 24.3561 7.59724 24.4093 7.42364C24.4626 7.25793 24.5006 7.08433 24.5386 6.91073C24.569 6.72923 24.5994 6.55563 24.6147 6.38203C24.6299 6.20053 24.6451 6.01904 24.6451 5.84544C24.6451 5.71918 24.6375 5.59293 24.6299 5.46667C24.6147 5.28518 24.5919 5.11157 24.5691 4.93797C24.5386 4.75648 24.5006 4.58288 24.455 4.40927C24.4018 4.24356 24.3485 4.06996 24.2877 3.90425C24.2269 3.73854 24.1508 3.57282 24.0748 3.415C23.9911 3.25718 23.9075 3.09936 23.8163 2.94944C23.7174 2.79951 23.6185 2.65747 23.5121 2.51543C23.398 2.38128 23.284 2.24713 23.1623 2.11299C23.1015 2.04986 23.033 1.97884 22.9646 1.91571C22.6224 1.63953 22.265 1.37912 21.9076 1.14239C21.8544 1.11082 21.8088 1.08715 21.7556 1.06348C21.5046 0.89777 21.2689 0.810923 21.0332 0.732015Z" fill="#E0234E"/>
</svg>
