<svg width="47" height="9" viewBox="0 0 47 9" fill="none" xmlns="http://www.w3.org/2000/svg">
<g clip-path="url(#clip0_8_369)">
<path d="M30.9524 0.0367432H39.0308V1.45132H35.8262V8.89324H34.2238V1.45132H30.9524V0.0367432Z" fill="#01629B"/>
<path d="M17.6664 0.0367432V1.45132H11.191V3.72695H16.3985V5.14153H11.191V7.47866H17.6664V8.89324H9.58868V1.45132H9.58801V0.0367432H17.6664Z" fill="#01629B"/>
<path d="M21.7002 0.0404053H19.6033L27.1141 8.89691H29.2171L25.4613 4.4717L29.2111 0.0471622L27.1141 0.0502366L24.4114 3.23471L21.7002 0.0404053Z" fill="#01629B"/>
<path d="M23.852 6.36662L22.8019 5.12793L19.5973 8.90363H21.7002L23.852 6.36662Z" fill="#01629B"/>
<path fill-rule="evenodd" clip-rule="evenodd" d="M9.6449 8.89321L2.12399 0.03302H0.121094V8.88952H1.72341V1.92609L7.63197 8.89321H9.6449Z" fill="#01629B"/>
<path d="M39.3909 8.83913C39.2736 8.83913 39.1737 8.80057 39.0902 8.72344C39.0066 8.6463 38.9653 8.55292 38.9663 8.44229C38.9653 8.33471 39.0066 8.24234 39.0902 8.16521C39.1737 8.08807 39.2736 8.0495 39.3909 8.0495C39.5038 8.0495 39.6026 8.08807 39.6861 8.16521C39.7709 8.24234 39.8132 8.33471 39.8143 8.44229C39.8132 8.51536 39.7936 8.58235 39.7545 8.64223C39.7144 8.70313 39.6634 8.75084 39.5993 8.78535C39.5363 8.82087 39.4668 8.83913 39.3909 8.83913Z" fill="#01629B"/>
<path d="M42.1258 5.10815H42.8359V7.70341C42.8348 7.94192 42.7804 8.14593 42.6741 8.31746C42.5667 8.48898 42.4179 8.6199 42.2268 8.71227C42.0368 8.80361 41.8142 8.85031 41.5613 8.85031C41.33 8.85031 41.1227 8.81072 40.9381 8.73359C40.7535 8.65645 40.607 8.54075 40.4995 8.3885C40.3909 8.23625 40.3376 8.04646 40.3376 7.81911H41.0489C41.0499 7.91858 41.0738 8.00484 41.1194 8.0769C41.1649 8.14897 41.2279 8.20377 41.3083 8.24234C41.3896 8.28091 41.4831 8.3002 41.5883 8.3002C41.7024 8.3002 41.8001 8.27786 41.8793 8.23219C41.9586 8.18753 42.0194 8.12055 42.0618 8.03123C42.103 7.94294 42.1248 7.83332 42.1258 7.70341V5.10815Z" fill="#01629B"/>
<path d="M45.7574 6.1231C45.7401 5.96578 45.664 5.84297 45.5316 5.75569C45.398 5.66739 45.2254 5.62374 45.0137 5.62374C44.865 5.62374 44.7369 5.64506 44.6305 5.68667C44.5241 5.7293 44.4416 5.78613 44.3851 5.85819C44.3287 5.93026 44.3004 6.01247 44.2982 6.10484C44.2982 6.18197 44.3177 6.24896 44.3558 6.30478C44.3938 6.36162 44.4447 6.40932 44.511 6.44789C44.5761 6.48747 44.6489 6.51995 44.7282 6.54634C44.8085 6.57273 44.8889 6.59506 44.9692 6.61333L45.3394 6.6996C45.4882 6.73207 45.6326 6.77573 45.7704 6.83154C45.9083 6.88635 46.0332 6.95639 46.1428 7.04062C46.2525 7.12487 46.3393 7.22636 46.4034 7.34512C46.4674 7.46386 46.5 7.60291 46.5 7.76327C46.5 7.97945 46.4414 8.16926 46.323 8.33367C46.2047 8.49708 46.0342 8.62497 45.8106 8.71733C45.588 8.80869 45.3188 8.85537 45.0018 8.85537C44.6956 8.85537 44.4285 8.81072 44.2038 8.7214C43.978 8.6331 43.802 8.50318 43.675 8.33266C43.548 8.16215 43.4796 7.95408 43.4698 7.70948H44.1734C44.1832 7.83736 44.2266 7.94394 44.3004 8.03021C44.3753 8.11546 44.473 8.17839 44.5925 8.22102C44.713 8.26263 44.8476 8.28395 44.9964 8.28395C45.1516 8.28395 45.2884 8.26161 45.4067 8.21797C45.5239 8.17433 45.6162 8.11344 45.6825 8.03427C45.7498 7.95611 45.7835 7.86376 45.7846 7.7582C45.7835 7.66178 45.753 7.58159 45.6944 7.51866C45.6347 7.45574 45.5522 7.40296 45.4468 7.36034C45.3405 7.31771 45.2167 7.27914 45.0756 7.24565L44.6261 7.13806C44.3015 7.05991 44.0442 6.94116 43.8563 6.78181C43.6675 6.62247 43.574 6.41136 43.574 6.14645C43.574 5.92925 43.637 5.73845 43.7641 5.57503C43.89 5.41163 44.0627 5.28475 44.2809 5.19442C44.5002 5.10308 44.7477 5.05841 45.0234 5.05841C45.3036 5.05841 45.5489 5.10308 45.7607 5.19442C45.9723 5.28475 46.1385 5.41061 46.2589 5.57097C46.3795 5.73133 46.4425 5.91504 46.4458 6.1231H45.7574Z" fill="#01629B"/>
</g>
<defs>
<clipPath id="clip0_8_369">
<rect width="46.3789" height="8.93401" fill="white" transform="translate(0.121094 0.03302)"/>
</clipPath>
</defs>
</svg>
