<svg width="27" height="31" viewBox="0 0 27 31" fill="none" xmlns="http://www.w3.org/2000/svg">
<g clip-path="url(#clip0_8_374)">
<path d="M12.2075 0.548153C12.8962 0.114486 13.7933 0.112528 14.4815 0.548153C17.9436 2.70005 21.4068 4.84858 24.8683 7.00178C25.5194 7.4052 25.9549 8.20223 25.9483 9.02745V21.9741C25.9531 22.8335 25.4746 23.6496 24.7877 24.0438C21.337 26.1839 17.888 28.3265 14.4379 30.4666C13.7349 30.9087 12.8197 30.8747 12.1387 30.3963C11.1042 29.7366 10.0679 29.0801 9.03324 28.4211C8.82183 28.2824 8.5835 28.1721 8.43421 27.9466C8.56619 27.7509 8.80214 27.7266 8.99387 27.6411C9.42571 27.4901 9.82232 27.2476 10.219 27.0124C10.3194 26.9368 10.4418 26.9658 10.538 27.0334C11.4226 27.5913 12.2995 28.1655 13.1871 28.7181C13.3764 28.8383 13.5682 28.6787 13.73 28.5794C17.1162 26.4742 20.5066 24.3769 23.8923 22.2711C24.0177 22.2047 24.0871 22.0582 24.0769 21.9071C24.0792 17.6362 24.0775 13.3647 24.0781 9.09383C24.0924 8.92232 24.0022 8.76463 23.8612 8.69444C20.4224 6.5642 16.9855 4.43069 13.5473 2.2999C13.4877 2.25486 13.4172 2.23069 13.3449 2.23057C13.2726 2.23045 13.202 2.2544 13.1423 2.29925C9.7041 4.43069 6.26771 6.56616 2.82954 8.69629C2.68906 8.76659 2.59478 8.92167 2.6115 9.09383C2.61209 13.3647 2.6115 17.6362 2.6115 21.9077C2.60554 21.9815 2.62026 22.0555 2.65369 22.1197C2.68712 22.184 2.73765 22.2355 2.79848 22.2672C3.71597 22.8395 4.63465 23.4078 5.55273 23.9781C6.06995 24.2843 6.70499 24.4663 7.27483 24.2317C7.7777 24.0333 8.1302 23.4688 8.1206 22.8815C8.12535 18.6356 8.11823 14.389 8.12416 10.1438C8.1116 9.95528 8.27414 9.79956 8.44074 9.8173C8.88158 9.81403 9.32301 9.81077 9.76385 9.8186C9.94787 9.81403 10.0745 10.017 10.0517 10.2069C10.05 14.4797 10.0565 18.7526 10.0488 23.0253C10.05 24.1641 9.62466 25.4032 8.6671 25.9603C7.48744 26.6326 6.02939 26.49 4.86397 25.8454C3.85507 25.2915 2.89227 24.6378 1.90127 24.0444C1.21261 23.6523 0.736448 22.8329 0.741296 21.9742V9.02745C0.734074 8.18514 1.18688 7.37364 1.85823 6.9761C5.30837 4.83432 8.75792 2.69091 12.2075 0.548153Z" fill="#8CC84B"/>
<path d="M15.2174 9.51632C16.7221 9.40978 18.333 9.4532 19.6871 10.2686C20.7355 10.8935 21.3167 12.2049 21.3352 13.4861C21.3059 13.659 21.1417 13.7543 20.9917 13.7424C20.5551 13.7418 20.1184 13.7489 19.6818 13.7392C19.4966 13.747 19.389 13.5592 19.3658 13.3791C19.2403 12.766 18.9364 12.1589 18.4119 11.8632C17.6067 11.4198 16.673 11.4421 15.795 11.4513C15.154 11.4888 14.4648 11.5498 13.9218 11.9644C13.5049 12.2785 13.3782 12.9125 13.527 13.4231C13.6673 13.7898 14.052 13.9081 14.3668 14.0171C16.1803 14.5388 18.1019 14.4869 19.8807 15.1735C20.6171 15.4534 21.3376 15.9975 21.5896 16.8457C21.9194 17.9824 21.7748 19.3412 21.0396 20.2538C20.4433 21.0048 19.5749 21.4136 18.7088 21.6356C17.5565 21.9182 16.3607 21.9254 15.1906 21.7999C14.0902 21.6619 12.9452 21.3439 12.0958 20.5193C11.3694 19.8255 11.0147 18.7445 11.0499 17.7012C11.0583 17.5251 11.2178 17.4022 11.3712 17.4167C11.8109 17.4128 12.2505 17.4114 12.6902 17.4173C12.8658 17.4035 12.996 17.5704 13.005 17.7525C13.0861 18.3366 13.2856 18.9496 13.7486 19.2959C14.6422 19.93 15.7634 19.8866 16.7865 19.9043C17.6342 19.8629 18.5857 19.8504 19.2774 19.2341C19.6424 18.8826 19.7505 18.2946 19.6519 17.7886C19.545 17.3615 19.1388 17.1625 18.79 17.0323C16.9998 16.4094 15.0567 16.6354 13.2838 15.931C12.5641 15.6512 11.8681 15.1222 11.5916 14.3089C11.2058 13.1577 11.3826 11.7338 12.1949 10.852C12.987 9.97491 14.1303 9.63723 15.2174 9.51632Z" fill="#8CC84B"/>
</g>
<defs>
<clipPath id="clip0_8_374">
<rect width="26" height="31" fill="white" transform="translate(0.5)"/>
</clipPath>
</defs>
</svg>
