<svg width="33" height="32" viewBox="0 0 33 32" fill="none" xmlns="http://www.w3.org/2000/svg">
<path d="M19.1545 15.5556C19.1545 16.9201 17.9846 18.0484 16.5133 18.0484C15.0421 18.0484 13.8722 16.9201 13.8722 15.5556C13.8722 14.1911 15.0421 13.0627 16.5133 13.0627C17.9846 13.0627 19.1545 14.1911 19.1545 15.5556Z" fill="#47AFCC" stroke="#47AFCC" stroke-width="0.5"/>
<path d="M16.5133 21.175C25.0811 21.175 32.0267 18.6591 32.0267 15.5556C32.0267 12.452 25.0811 9.9361 16.5133 9.9361C7.94556 9.9361 1 12.452 1 15.5556C1 18.6591 7.94556 21.175 16.5133 21.175Z" stroke="#47AFCC"/>
<path d="M11.3836 18.3653C15.6675 25.4046 21.4369 29.8532 24.27 28.3014C27.103 26.7496 25.9269 19.7852 21.643 12.7458C17.3591 5.70648 11.5897 1.25794 8.7567 2.80971C5.92364 4.36148 7.09977 11.326 11.3836 18.3653Z" stroke="#47AFCC"/>
<path d="M11.3836 12.7458C7.09977 19.7851 5.92364 26.7496 8.75669 28.3014C11.5897 29.8531 17.3592 25.4046 21.643 18.3653C25.9269 11.3259 27.1031 4.36148 24.27 2.80971C21.437 1.25794 15.6675 5.70648 11.3836 12.7458Z" stroke="#47AFCC"/>
</svg>
