<svg width="33" height="23" viewBox="0 0 33 23" fill="none" xmlns="http://www.w3.org/2000/svg">
<g clip-path="url(#clip0_8_373)">
<path d="M27.2891 13.1728C26.2037 13.1784 25.2604 13.4352 24.4705 13.8147C24.1807 13.251 23.8909 12.7487 23.8398 12.3803C23.783 11.9506 23.7148 11.6883 23.783 11.1748C23.8511 10.6614 24.158 9.93023 24.1523 9.87442C24.1466 9.81861 24.0841 9.5563 23.4591 9.55072C22.834 9.54514 22.2941 9.66792 22.2316 9.82977C22.1691 9.99163 22.0498 10.36 21.9702 10.7395C21.8622 11.2976 20.7201 13.29 20.0666 14.3337C19.8563 13.9263 19.6745 13.5691 19.6347 13.2845C19.5779 12.8547 19.5097 12.5924 19.5779 12.079C19.6461 11.5655 19.9529 10.8344 19.9472 10.7786C19.9415 10.7227 19.879 10.4604 19.254 10.4549C18.6289 10.4493 18.089 10.5721 18.0265 10.7339C17.964 10.8958 17.8958 11.2753 17.7651 11.6436C17.6344 12.012 16.1172 15.3383 15.7194 16.1978C15.5148 16.6387 15.3387 16.9903 15.2136 17.2303C15.2136 17.2303 15.208 17.247 15.1909 17.2749C15.083 17.4814 15.0204 17.5931 15.0204 17.5931C15.0204 17.5931 15.0204 17.5931 15.0204 17.5987C14.9352 17.7493 14.8443 17.8889 14.7988 17.8889C14.7647 17.8889 14.7022 17.487 14.8102 16.9401C15.0375 15.7848 15.5773 13.9877 15.5717 13.9263C15.5717 13.8928 15.6739 13.5803 15.2193 13.4184C14.7761 13.2566 14.617 13.5245 14.5772 13.5245C14.5374 13.5245 14.509 13.6193 14.509 13.6193C14.509 13.6193 15.0034 11.599 13.5657 11.599C12.6679 11.599 11.4291 12.5645 10.8153 13.4352C10.4289 13.6417 9.60496 14.0826 8.72416 14.557C8.38889 14.7411 8.04225 14.9253 7.71835 15.0983C7.69562 15.076 7.67289 15.0481 7.65016 15.0258C5.91129 13.2008 2.69496 11.9115 2.83134 9.46142C2.88248 8.56845 3.19502 6.22439 9.00829 3.37803C13.793 1.06188 17.6003 1.7037 18.2595 3.12688C19.2028 5.1584 16.2195 8.93122 11.2756 9.47817C9.38902 9.68467 8.40025 8.97029 8.15022 8.70239C7.88882 8.42334 7.84905 8.4066 7.75244 8.46241C7.59333 8.54612 7.69562 8.79727 7.75244 8.94238C7.90019 9.32189 8.50822 9.99163 9.53677 10.3209C10.446 10.6111 12.6565 10.773 15.333 9.75722C18.3277 8.61868 20.6689 5.4542 19.9813 2.80318C19.2937 0.113094 14.7477 -0.7743 10.446 0.727014C7.88882 1.61999 5.11573 3.02642 3.12115 4.85702C0.751522 7.03365 0.376474 8.92564 0.529903 9.71815C1.08111 12.531 5.03049 14.3616 6.61025 15.7178C6.53069 15.7625 6.45682 15.8015 6.39431 15.835C5.60443 16.2201 2.59267 17.7661 1.84258 19.4013C0.990191 21.2543 1.97896 22.5826 2.63245 22.7612C4.66113 23.3137 6.74663 22.3203 7.86609 20.6794C8.98556 19.0386 8.84918 16.9066 8.33206 15.9299C8.32638 15.9187 8.3207 15.9076 8.30933 15.8964C8.51391 15.7792 8.72416 15.6564 8.92873 15.5392C9.3322 15.3048 9.72997 15.0872 10.0709 14.9086C9.87772 15.4276 9.73566 16.0471 9.66747 16.9401C9.58223 17.9893 10.0198 19.3511 10.5937 19.8869C10.8494 20.1213 11.1506 20.1269 11.3438 20.1269C12.0144 20.1269 12.3155 19.5799 12.6508 18.9325C13.06 18.14 13.4293 17.2191 13.4293 17.2191C13.4293 17.2191 12.969 19.7083 14.2192 19.7083C14.6738 19.7083 15.1341 19.1279 15.3387 18.8321C15.3387 18.8377 15.3387 18.8377 15.3387 18.8377C15.3387 18.8377 15.35 18.8209 15.3728 18.7818C15.4182 18.7093 15.4466 18.6646 15.4466 18.6646C15.4466 18.6646 15.4466 18.6591 15.4466 18.6535C15.6285 18.3409 16.0376 17.6321 16.6457 16.4545C17.4299 14.9365 18.1856 13.0389 18.1856 13.0389C18.1856 13.0389 18.2538 13.5021 18.4868 14.2723C18.6232 14.7244 18.9073 15.2211 19.1346 15.7011C18.9528 15.9522 18.8391 16.0918 18.8391 16.0918C18.8391 16.0918 18.8391 16.0918 18.8448 16.0973C18.6971 16.2871 18.5379 16.4936 18.3618 16.6945C17.7424 17.4201 17.0037 18.2516 16.9014 18.4916C16.782 18.7763 16.8105 18.9828 17.0378 19.1502C17.2025 19.273 17.498 19.2897 17.7992 19.273C18.3561 19.2339 18.7482 19.1 18.9414 19.0162C19.2426 18.9102 19.5949 18.7484 19.9245 18.5084C20.5325 18.0675 20.9019 17.4368 20.8678 16.6052C20.8508 16.1476 20.6973 15.6899 20.5098 15.2602C20.5666 15.182 20.6178 15.1039 20.6746 15.0258C21.6349 13.6472 22.3794 12.1348 22.3794 12.1348C22.3794 12.1348 22.4476 12.598 22.6805 13.3682C22.7942 13.7589 23.0272 14.183 23.2317 14.596C22.3282 15.316 21.7713 16.1531 21.5724 16.7001C21.2144 17.7159 21.4929 18.1735 22.0214 18.2795C22.26 18.3298 22.601 18.2182 22.851 18.1121C23.1692 18.0117 23.5443 17.8386 23.9023 17.5819C24.5103 17.141 25.0956 16.5271 25.0615 15.6955C25.0445 15.316 24.9422 14.9421 24.8001 14.5793C25.5673 14.2667 26.5561 14.0937 27.8176 14.2388C30.5225 14.5514 31.0566 16.209 30.9544 16.9066C30.8521 17.6042 30.2838 17.9837 30.0963 18.1009C29.9088 18.2182 29.8463 18.2572 29.8633 18.3409C29.886 18.4637 29.977 18.4581 30.1361 18.4358C30.3577 18.3967 31.5567 17.8721 31.6079 16.5885C31.6931 14.9476 30.102 13.1561 27.2891 13.1728ZM6.42272 20.0822C5.52488 21.0422 4.27471 21.405 3.73487 21.098C3.15525 20.7687 3.38255 19.3511 4.48497 18.3354C5.15551 17.7159 6.01926 17.141 6.5932 16.7894C6.7239 16.7113 6.91711 16.5996 7.15009 16.4601C7.18987 16.4378 7.2126 16.4266 7.2126 16.4266C7.25806 16.3987 7.30352 16.3708 7.34898 16.3429C7.75244 17.794 7.36603 19.0721 6.42272 20.0822ZM12.9577 15.7178C12.6451 16.4657 11.9916 18.38 11.5939 18.274C11.2529 18.1847 11.0426 16.7336 11.5257 15.2992C11.77 14.5793 12.2871 13.7198 12.5883 13.3849C13.077 12.8491 13.6168 12.6705 13.7475 12.8882C13.9123 13.1728 13.1509 15.249 12.9577 15.7178ZM18.3504 18.2516C18.2197 18.3186 18.0947 18.3633 18.0379 18.3298C17.9981 18.3074 18.0947 18.2182 18.0947 18.2182C18.0947 18.2182 18.7709 17.5038 19.038 17.1801C19.1914 16.9903 19.3733 16.7671 19.5665 16.5159C19.5665 16.5382 19.5665 16.5662 19.5665 16.5885C19.5665 17.4424 18.7255 18.0172 18.3504 18.2516ZM22.5101 17.3196C22.4135 17.2526 22.4305 17.0294 22.7544 16.3317C22.8794 16.0583 23.1749 15.6006 23.6807 15.1597C23.7375 15.3383 23.7773 15.5113 23.7716 15.6732C23.7659 16.7503 22.9817 17.1522 22.5101 17.3196Z" fill="#CD6799"/>
</g>
<defs>
<clipPath id="clip0_8_373">
<rect width="32" height="23" fill="white" transform="translate(0.5)"/>
</clipPath>
</defs>
</svg>
