<svg width="31" height="19" viewBox="0 0 31 19" fill="none" xmlns="http://www.w3.org/2000/svg">
<g clip-path="url(#clip0_8_376)">
<path d="M15.2222 0C11.2962 0 8.84253 2.03652 7.86093 6.10919C9.33333 4.07267 11.051 3.30926 13.0138 3.8182C14.1338 4.10858 14.9343 4.95185 15.8205 5.8849C17.2639 7.40485 18.9343 9.16398 22.5835 9.16398C26.5092 9.16398 28.9632 7.12745 29.9444 3.0544C28.4724 5.09093 26.7548 5.85472 24.7916 5.34578C23.6719 5.05539 22.8714 4.21213 21.9852 3.27907C20.5419 1.75913 18.871 0 15.2222 0ZM7.86093 9.16398C3.93525 9.16398 1.48124 11.2005 0.5 15.2735C1.97204 13.237 3.68966 12.4732 5.65287 12.9826C6.77255 13.2733 7.573 14.1162 8.45924 15.0489C9.90256 16.5688 11.5734 18.3283 15.2222 18.3283C19.1483 18.3283 21.6019 16.2918 22.5835 12.2188C21.1111 14.2553 19.3935 15.0191 17.4306 14.5098C16.3106 14.2198 15.5101 13.3761 14.6239 12.4434C13.1806 10.9235 11.5101 9.16398 7.86093 9.16398Z" fill="#06B6D4"/>
</g>
<defs>
<clipPath id="clip0_8_376">
<rect width="30" height="19" fill="white" transform="translate(0.5)"/>
</clipPath>
</defs>
</svg>
