<svg width="33" height="31" viewBox="0 0 33 31" fill="none" xmlns="http://www.w3.org/2000/svg">
<g clip-path="url(#clip0_8_372)">
<path d="M0.522095 0.222168H31.6332V30.7777H0.522095V0.222168Z" fill="#017ACB"/>
<path d="M15.4603 11.5373H16.9527V14.0677H12.918V25.3255L12.811 25.3541C12.6652 25.3923 10.745 25.3923 10.3318 25.3493L10.0013 25.3207V14.0677H5.96655V11.5373L7.24503 11.5229C7.94503 11.5134 9.74364 11.5134 11.2409 11.5229C12.7381 11.5325 14.6339 11.5373 15.4603 11.5373ZM26.8499 24.1319C26.2569 24.7478 25.6201 25.0915 24.5603 25.3732C24.0985 25.4973 24.0208 25.5021 22.9805 25.4973C21.9402 25.4926 21.8576 25.4926 21.352 25.3637C20.0444 25.0342 18.9895 24.3897 18.27 23.4778C18.0659 23.22 17.7305 22.6853 17.7305 22.6184C17.7305 22.5993 17.7791 22.5564 17.8423 22.5277C17.9055 22.4991 18.0367 22.4179 18.1437 22.3558C18.2506 22.2938 18.445 22.1792 18.5763 22.1124C18.7075 22.0455 19.0867 21.8259 19.4173 21.6302C19.7478 21.4344 20.0492 21.2769 20.0832 21.2769C20.1173 21.2769 20.1805 21.3437 20.2291 21.4249C20.5207 21.9071 21.2013 22.5229 21.6826 22.733C21.9791 22.8571 22.6353 22.9956 22.9513 22.9956C23.243 22.9956 23.7777 22.8715 24.0645 22.7426C24.3708 22.6041 24.5263 22.4657 24.711 22.1887C24.8374 21.993 24.852 21.9405 24.8471 21.5681C24.8471 21.2243 24.8277 21.1289 24.7305 20.9713C24.4583 20.5321 24.0888 20.3029 22.5916 19.6536C21.0457 18.9804 20.3506 18.5794 19.7867 18.0399C19.3687 17.6388 19.286 17.529 19.0235 17.0277C18.6832 16.3832 18.6395 16.1731 18.6346 15.2135C18.6298 14.5403 18.6444 14.3207 18.7173 14.0915C18.8194 13.7478 19.1499 13.0841 19.3006 12.917C19.6117 12.559 19.7235 12.4492 19.9423 12.2725C20.6034 11.7378 21.6339 11.3845 22.6207 11.3511C22.7326 11.3511 23.102 11.3702 23.4471 11.394C24.4388 11.4752 25.1145 11.7139 25.7659 12.2248C26.2569 12.6067 27.0006 13.5043 26.9277 13.6236C26.8791 13.6953 24.9395 14.9652 24.8131 15.0034C24.7353 15.0273 24.6819 14.9986 24.5749 14.8745C23.9138 14.0963 23.6464 13.9292 23.0048 13.891C22.5478 13.8624 22.3048 13.9149 21.9985 14.1154C21.6777 14.3255 21.5221 14.6453 21.5221 15.0894C21.527 15.7387 21.7798 16.0442 22.7131 16.4978C23.3159 16.789 23.8312 17.0277 23.8701 17.0277C23.9284 17.0277 25.1777 17.6388 25.5034 17.8298C27.0201 18.7035 27.6374 19.6011 27.7978 21.1479C27.9145 22.3129 27.5791 23.3775 26.8499 24.1319Z" fill="white"/>
</g>
<defs>
<clipPath id="clip0_8_372">
<rect width="32" height="31" fill="white" transform="translate(0.5)"/>
</clipPath>
</defs>
</svg>
