<svg width="123" height="130" viewBox="0 0 123 130" fill="none" xmlns="http://www.w3.org/2000/svg">
<path d="M102.067 20.2301H9.02894C4.57218 20.2301 0.968384 23.7486 0.968384 28.0987V121.52C0.968384 125.87 4.57218 129.41 9.02894 129.41H102.067C106.523 129.41 110.148 125.87 110.148 121.541V28.0987C110.148 23.7486 106.523 20.2301 102.067 20.2301ZM33.3599 113.268H17.1535V61.1512H33.3599V113.268ZM25.2567 54.0503C20.0536 54.0503 15.8527 49.8494 15.8527 44.6676C15.8527 39.4858 20.0536 35.285 25.2567 35.285C30.4385 35.285 34.6393 39.4858 34.6393 44.6676C34.6393 49.8281 30.4385 54.0503 25.2567 54.0503ZM94.0059 113.268H77.8209V87.9344C77.8209 81.8997 77.7142 74.1164 69.3978 74.1164C60.9747 74.1164 59.6953 80.7055 59.6953 87.508V113.268H43.5315V61.1512H59.0556V68.2735H59.2688C61.4225 64.1793 66.711 59.8505 74.5796 59.8505C90.9779 59.8505 94.0059 70.6405 94.0059 84.6719V113.268Z" fill="#DBDBDB"/>
<circle cx="102.897" cy="20.5181" r="19.9283" fill="#0877B9"/>
<path d="M114.872 19.0372V21.7817H90.6331V19.0372H114.872ZM104.112 7.74365V33.4881H101.198V7.74365H104.112Z" fill="#DBDBDB"/>
</svg>
