<svg width="230" height="108" viewBox="0 0 230 108" fill="none" xmlns="http://www.w3.org/2000/svg">
<rect width="230" height="108" rx="8" fill="#2D2D2D"/>
<g filter="url(#filter0_d_42_275)">
<path d="M25 43.1377C25 36.5103 30.3726 31.1377 37 31.1377H70V76.1377H25V43.1377Z" fill="url(#paint0_radial_42_275)" shape-rendering="crispEdges"/>
</g>
<path d="M56.4976 62.2295L38.9081 62.2295L38.9081 44.64L48.9191 44.64C53.1046 44.64 56.4976 48.0331 56.4976 52.2186L56.4976 62.2295Z" stroke="white" stroke-width="5.11322"/>
<rect x="36.0267" y="59.4349" width="1.05405" height="17.5946" transform="rotate(-90 36.0267 59.4349)" fill="url(#paint1_radial_42_275)" stroke="url(#paint2_radial_42_275)" stroke-width="0.648649"/>
<path d="M82.7489 76.1763C81.9033 76.1763 81.1557 76.0292 80.5061 75.7351C79.8688 75.4409 79.3663 75.0304 78.9986 74.5034C78.631 73.9764 78.4349 73.3881 78.4104 72.7385H79.7708C79.832 73.3636 80.1078 73.9151 80.598 74.3931C81.0883 74.8588 81.8052 75.0916 82.7489 75.0916C83.6191 75.0916 84.3054 74.871 84.8079 74.4298C85.3227 73.9764 85.5801 73.4065 85.5801 72.7201C85.5801 72.1686 85.4391 71.7274 85.1572 71.3965C84.8753 71.0533 84.526 70.8021 84.1093 70.6428C83.6926 70.4712 83.1166 70.2873 82.3813 70.0912C81.5234 69.8584 80.8431 69.6316 80.3407 69.411C79.8382 69.1904 79.4092 68.8473 79.0538 68.3815C78.6984 67.9158 78.5207 67.2846 78.5207 66.488C78.5207 65.8262 78.6922 65.2379 79.0354 64.7232C79.3786 64.1962 79.8627 63.7856 80.4877 63.4914C81.1128 63.1973 81.8297 63.0502 82.6386 63.0502C83.8275 63.0502 84.7834 63.3444 85.5065 63.9327C86.2419 64.5087 86.6647 65.2563 86.775 66.1755H85.3778C85.292 65.6485 85.004 65.1828 84.5138 64.7783C84.0236 64.3616 83.3617 64.1533 82.5283 64.1533C81.7562 64.1533 81.1128 64.3616 80.598 64.7783C80.0833 65.1828 79.8259 65.7404 79.8259 66.4512C79.8259 66.9905 79.9669 67.4256 80.2487 67.7565C80.5306 68.0874 80.8799 68.3386 81.2966 68.5102C81.7256 68.6818 82.3016 68.8657 83.0247 69.0617C83.8581 69.2946 84.5322 69.5275 85.0469 69.7603C85.5617 69.9809 85.9968 70.3241 86.3522 70.7898C86.7076 71.2556 86.8853 71.8806 86.8853 72.665C86.8853 73.2655 86.726 73.8354 86.4073 74.3747C86.0887 74.9139 85.6168 75.349 84.9918 75.6799C84.3667 76.0108 83.6191 76.1763 82.7489 76.1763ZM96.9829 63.1973V64.2636H93.4165V76.0476H92.1296V64.2636H88.5447V63.1973H96.9829ZM100.339 63.1973V71.2862C100.339 72.5608 100.639 73.5045 101.239 74.1173C101.852 74.7301 102.686 75.0365 103.74 75.0365C104.794 75.0365 105.615 74.7362 106.203 74.1357C106.804 73.5229 107.104 72.5731 107.104 71.2862V63.1973H108.391V71.2678C108.391 72.8978 107.956 74.1234 107.085 74.9446C106.227 75.7657 105.106 76.1763 103.721 76.1763C102.336 76.1763 101.209 75.7657 100.339 74.9446C99.4806 74.1234 99.0517 72.8978 99.0517 71.2678V63.1973H100.339ZM115.158 63.1973C116.58 63.1973 117.8 63.4547 118.817 63.9694C119.834 64.4842 120.612 65.2257 121.151 66.1939C121.691 67.1621 121.96 68.3141 121.96 69.65C121.96 70.9737 121.691 72.1196 121.151 73.0878C120.612 74.0438 119.834 74.7791 118.817 75.2939C117.8 75.7964 116.58 76.0476 115.158 76.0476H111.353V63.1973H115.158ZM115.158 74.9813C116.948 74.9813 118.308 74.5156 119.24 73.5842C120.183 72.6405 120.655 71.3291 120.655 69.65C120.655 67.9587 120.183 66.6412 119.24 65.6975C118.308 64.7415 116.948 64.2636 115.158 64.2636H112.64V74.9813H115.158ZM125.712 63.1973V76.0476H124.425V63.1973H125.712ZM134.49 76.1763C133.301 76.1763 132.223 75.9005 131.255 75.349C130.286 74.7853 129.52 74.007 128.957 73.0143C128.405 72.0093 128.129 70.8756 128.129 69.6133C128.129 68.3509 128.405 67.2234 128.957 66.2306C129.52 65.2257 130.286 64.4474 131.255 63.8959C132.223 63.3321 133.301 63.0502 134.49 63.0502C135.691 63.0502 136.776 63.3321 137.744 63.8959C138.712 64.4474 139.472 65.2257 140.024 66.2306C140.575 67.2234 140.851 68.3509 140.851 69.6133C140.851 70.8756 140.575 72.0093 140.024 73.0143C139.472 74.007 138.712 74.7853 137.744 75.349C136.776 75.9005 135.691 76.1763 134.49 76.1763ZM134.49 75.0549C135.446 75.0549 136.304 74.8343 137.064 74.3931C137.824 73.9518 138.424 73.3207 138.866 72.4995C139.307 71.6661 139.527 70.704 139.527 69.6133C139.527 68.5225 139.307 67.5665 138.866 66.7454C138.424 65.9242 137.824 65.2931 137.064 64.8518C136.304 64.4106 135.446 64.19 134.49 64.19C133.534 64.19 132.676 64.4106 131.917 64.8518C131.157 65.2931 130.556 65.9242 130.115 66.7454C129.674 67.5665 129.453 68.5225 129.453 69.6133C129.453 70.704 129.674 71.6661 130.115 72.4995C130.556 73.3207 131.157 73.9518 131.917 74.3931C132.676 74.8343 133.534 75.0549 134.49 75.0549ZM164.024 63.1973L160.384 76.0476H158.95L155.714 65.0908L152.405 76.0476L151.008 76.066L147.442 63.1973H148.82L151.762 74.4666L155.053 63.1973H156.487L159.685 74.4666L162.645 63.1973H164.024ZM167.371 64.2452V69.0434H172.243V70.1096H167.371V74.9813H172.794V76.0476H166.084V63.1789H172.794V64.2452H167.371ZM181.434 69.411C182.157 69.5459 182.769 69.9135 183.272 70.5141C183.774 71.1146 184.026 71.8132 184.026 72.6098C184.026 73.2594 183.86 73.8477 183.529 74.3747C183.211 74.8894 182.739 75.3 182.114 75.6064C181.489 75.9005 180.741 76.0476 179.871 76.0476H175.422V63.1973H179.742C181.041 63.1973 182.028 63.4976 182.702 64.0981C183.388 64.6986 183.732 65.4769 183.732 66.4329C183.732 67.2295 183.517 67.8791 183.088 68.3815C182.659 68.8718 182.108 69.2149 181.434 69.411ZM176.709 68.8779H179.705C180.576 68.8779 181.244 68.6757 181.709 68.2712C182.187 67.8545 182.426 67.2846 182.426 66.5615C182.426 65.8507 182.187 65.2931 181.709 64.8886C181.244 64.4842 180.557 64.2819 179.65 64.2819H176.709V68.8779ZM179.779 74.963C180.71 74.963 181.434 74.7424 181.948 74.3011C182.475 73.8599 182.739 73.2533 182.739 72.4811C182.739 71.709 182.463 71.0962 181.912 70.6428C181.372 70.177 180.643 69.9442 179.724 69.9442H176.709V74.963H179.779Z" fill="white"/>
<path d="M79.4567 31.6007H88.1274C89.9052 31.6007 91.4328 31.8669 92.7103 32.3991C93.9984 32.9314 94.9884 33.7192 95.6804 34.7624C96.3723 35.8057 96.7183 37.0884 96.7183 38.6107C96.7183 39.8563 96.5054 40.9261 96.0796 41.8203C95.6644 42.7039 95.0736 43.4438 94.3071 44.0399C93.5513 44.6254 92.6624 45.0938 91.6404 45.4451L90.1234 46.2435H82.5865L82.5545 42.507H88.1594C89.0003 42.507 89.6976 42.3579 90.2512 42.0599C90.8047 41.7618 91.2199 41.3466 91.4967 40.8143C91.7841 40.2821 91.9278 39.6646 91.9278 38.962C91.9278 38.2169 91.7894 37.5728 91.5127 37.0299C91.2359 36.487 90.8154 36.0718 90.2512 35.7844C89.687 35.497 88.9791 35.3532 88.1274 35.3532H84.2472V54.8503H79.4567V31.6007ZM92.4548 54.8503L87.1534 44.487L92.2153 44.4551L97.5806 54.6268V54.8503H92.4548ZM110.024 35.5768L103.7 54.8503H98.6064L107.245 31.6007H110.487L110.024 35.5768ZM115.277 54.8503L108.938 35.5768L108.427 31.6007H111.7L120.387 54.8503H115.277ZM114.99 46.1956V49.9481H102.71V46.1956H114.99ZM134.81 48.7665C134.81 48.3513 134.746 47.9787 134.618 47.6487C134.501 47.3081 134.278 46.9993 133.948 46.7226C133.618 46.4351 133.155 46.153 132.558 45.8762C131.962 45.5995 131.191 45.312 130.243 45.014C129.189 44.6733 128.189 44.2901 127.241 43.8643C126.304 43.4384 125.474 42.9434 124.75 42.3792C124.037 41.8044 123.473 41.139 123.057 40.3832C122.653 39.6274 122.451 38.7491 122.451 37.7485C122.451 36.7797 122.664 35.9015 123.089 35.1137C123.515 34.3153 124.111 33.634 124.878 33.0698C125.644 32.4949 126.549 32.0532 127.592 31.7444C128.646 31.4357 129.801 31.2814 131.057 31.2814C132.771 31.2814 134.267 31.5901 135.544 32.2075C136.822 32.825 137.812 33.6713 138.515 34.7465C139.228 35.8216 139.584 37.0512 139.584 38.4351H134.826C134.826 37.7538 134.682 37.1576 134.395 36.6467C134.118 36.125 133.692 35.7152 133.117 35.4171C132.553 35.119 131.84 34.97 130.978 34.97C130.147 34.97 129.455 35.0978 128.902 35.3532C128.348 35.5981 127.933 35.9334 127.656 36.3592C127.379 36.7744 127.241 37.2428 127.241 37.7644C127.241 38.1583 127.337 38.5149 127.528 38.8343C127.731 39.1537 128.029 39.4517 128.423 39.7285C128.817 40.0053 129.301 40.2661 129.876 40.511C130.451 40.7558 131.116 40.9953 131.872 41.2295C133.139 41.6128 134.251 42.0439 135.209 42.5229C136.178 43.002 136.987 43.5396 137.636 44.1357C138.286 44.7319 138.775 45.4078 139.105 46.1637C139.435 46.9195 139.6 47.7765 139.6 48.7345C139.6 49.7459 139.403 50.6507 139.01 51.4491C138.616 52.2475 138.046 52.9235 137.301 53.4771C136.556 54.0306 135.667 54.4511 134.634 54.7386C133.602 55.026 132.447 55.1697 131.169 55.1697C130.02 55.1697 128.886 55.0207 127.768 54.7226C126.65 54.4139 125.634 53.9508 124.718 53.3334C123.813 52.7159 123.089 51.9282 122.546 50.9701C122.004 50.012 121.732 48.8783 121.732 47.5689H126.538C126.538 48.2928 126.65 48.9049 126.874 49.4052C127.097 49.9055 127.411 50.3101 127.816 50.6188C128.231 50.9275 128.721 51.1511 129.285 51.2894C129.86 51.4278 130.488 51.497 131.169 51.497C132 51.497 132.681 51.3799 133.213 51.1457C133.756 50.9115 134.155 50.5868 134.411 50.1717C134.677 49.7565 134.81 49.2881 134.81 48.7665ZM148.115 31.6007V54.8503H143.341V31.6007H148.115ZM159.904 54.8503H154.842L154.874 51.1138H159.904C161.16 51.1138 162.219 50.8317 163.081 50.2675C163.944 49.6926 164.593 48.857 165.029 47.7605C165.476 46.664 165.7 45.3387 165.7 43.7844V42.6507C165.7 41.4584 165.572 40.4098 165.317 39.505C165.072 38.6001 164.705 37.8389 164.215 37.2215C163.725 36.6041 163.124 36.141 162.411 35.8323C161.697 35.5129 160.878 35.3532 159.951 35.3532H154.746V31.6007H159.951C161.506 31.6007 162.927 31.8669 164.215 32.3991C165.514 32.9208 166.637 33.6713 167.584 34.6506C168.532 35.63 169.261 36.801 169.772 38.1636C170.294 39.5156 170.554 41.0219 170.554 42.6826V43.7844C170.554 45.4345 170.294 46.9408 169.772 48.3034C169.261 49.666 168.532 50.837 167.584 51.8164C166.647 52.7851 165.524 53.5356 164.215 54.0679C162.916 54.5895 161.479 54.8503 159.904 54.8503ZM157.556 31.6007V54.8503H152.766V31.6007H157.556ZM179.293 31.6007V54.8503H174.518V31.6007H179.293ZM193.684 35.5768L187.36 54.8503H182.267L190.905 31.6007H194.147L193.684 35.5768ZM198.937 54.8503L192.598 35.5768L192.087 31.6007H195.361L204.047 54.8503H198.937ZM198.65 46.1956V49.9481H186.37V46.1956H198.65Z" fill="white"/>
<defs>
<filter id="filter0_d_42_275" x="20.5" y="31.1377" width="50" height="51.5" filterUnits="userSpaceOnUse" color-interpolation-filters="sRGB">
<feFlood flood-opacity="0" result="BackgroundImageFix"/>
<feColorMatrix in="SourceAlpha" type="matrix" values="0 0 0 0 0 0 0 0 0 0 0 0 0 0 0 0 0 0 127 0" result="hardAlpha"/>
<feOffset dx="-2" dy="4"/>
<feGaussianBlur stdDeviation="1.25"/>
<feComposite in2="hardAlpha" operator="out"/>
<feColorMatrix type="matrix" values="0 0 0 0 0 0 0 0 0 0 0 0 0 0 0 0 0 0 0.25 0"/>
<feBlend mode="normal" in2="BackgroundImageFix" result="effect1_dropShadow_42_275"/>
<feBlend mode="normal" in="SourceGraphic" in2="effect1_dropShadow_42_275" result="shape"/>
</filter>
<radialGradient id="paint0_radial_42_275" cx="0" cy="0" r="1" gradientUnits="userSpaceOnUse" gradientTransform="translate(47.5 53.6377) rotate(90) scale(22.5)">
<stop stop-color="#0047FF"/>
<stop offset="1" stop-color="#0084FF" stop-opacity="0.67"/>
</radialGradient>
<radialGradient id="paint1_radial_42_275" cx="0" cy="0" r="1" gradientUnits="userSpaceOnUse" gradientTransform="translate(36.5538 67.5836) rotate(90) scale(8.47297 0.202702)">
<stop stop-color="#0047FF"/>
<stop offset="1" stop-color="#0084FF" stop-opacity="0.67"/>
</radialGradient>
<radialGradient id="paint2_radial_42_275" cx="0" cy="0" r="1" gradientUnits="userSpaceOnUse" gradientTransform="translate(36.5538 67.5836) rotate(90) scale(8.47297 0.202702)">
<stop stop-color="#0047FF"/>
<stop offset="1" stop-color="#0084FF" stop-opacity="0.67"/>
</radialGradient>
</defs>
</svg>
