<svg width="185" height="58" viewBox="0 0 185 58" fill="none" xmlns="http://www.w3.org/2000/svg">
<g filter="url(#filter0_d_48_214)">
<path d="M5 18.1377C5 11.5103 10.3726 6.1377 17 6.1377H50V51.1377H5V18.1377Z" fill="url(#paint0_radial_48_214)" shape-rendering="crispEdges"/>
</g>
<path d="M36.4976 37.2295L18.9081 37.2295L18.9081 19.64L28.9191 19.64C33.1046 19.64 36.4976 23.0331 36.4976 27.2186L36.4976 37.2295Z" stroke="white" stroke-width="5.11322"/>
<rect x="16.0267" y="34.4349" width="1.05405" height="17.5946" transform="rotate(-90 16.0267 34.4349)" fill="url(#paint1_radial_48_214)" stroke="url(#paint2_radial_48_214)" stroke-width="0.648649"/>
<path d="M62.7489 51.1763C61.9033 51.1763 61.1557 51.0292 60.5061 50.7351C59.8688 50.4409 59.3663 50.0304 58.9986 49.5034C58.631 48.9764 58.4349 48.3881 58.4104 47.7385H59.7708C59.832 48.3636 60.1078 48.9151 60.598 49.3931C61.0883 49.8588 61.8052 50.0916 62.7489 50.0916C63.6191 50.0916 64.3054 49.871 64.8079 49.4298C65.3227 48.9764 65.5801 48.4065 65.5801 47.7201C65.5801 47.1686 65.4391 46.7274 65.1572 46.3965C64.8753 46.0533 64.526 45.8021 64.1093 45.6428C63.6926 45.4712 63.1166 45.2873 62.3813 45.0912C61.5234 44.8584 60.8431 44.6316 60.3407 44.411C59.8382 44.1904 59.4092 43.8473 59.0538 43.3815C58.6984 42.9158 58.5207 42.2846 58.5207 41.488C58.5207 40.8262 58.6922 40.2379 59.0354 39.7232C59.3786 39.1962 59.8627 38.7856 60.4877 38.4914C61.1128 38.1973 61.8297 38.0502 62.6386 38.0502C63.8275 38.0502 64.7834 38.3444 65.5065 38.9327C66.2419 39.5087 66.6647 40.2563 66.775 41.1755H65.3778C65.292 40.6485 65.004 40.1828 64.5138 39.7783C64.0236 39.3616 63.3617 39.1533 62.5283 39.1533C61.7562 39.1533 61.1128 39.3616 60.598 39.7783C60.0833 40.1828 59.8259 40.7404 59.8259 41.4512C59.8259 41.9905 59.9669 42.4256 60.2487 42.7565C60.5306 43.0874 60.8799 43.3386 61.2966 43.5102C61.7256 43.6818 62.3016 43.8657 63.0247 44.0617C63.8581 44.2946 64.5322 44.5275 65.0469 44.7603C65.5617 44.9809 65.9968 45.3241 66.3522 45.7898C66.7076 46.2556 66.8853 46.8806 66.8853 47.665C66.8853 48.2655 66.726 48.8354 66.4073 49.3747C66.0887 49.9139 65.6168 50.349 64.9918 50.6799C64.3667 51.0108 63.6191 51.1763 62.7489 51.1763ZM76.9829 38.1973V39.2636H73.4165V51.0476H72.1296V39.2636H68.5447V38.1973H76.9829ZM80.3385 38.1973V46.2862C80.3385 47.5608 80.6388 48.5045 81.2394 49.1173C81.8521 49.7301 82.6855 50.0365 83.7396 50.0365C84.7936 50.0365 85.6147 49.7362 86.203 49.1357C86.8035 48.5229 87.1038 47.5731 87.1038 46.2862V38.1973H88.3907V46.2678C88.3907 47.8978 87.9556 49.1234 87.0854 49.9446C86.2275 50.7657 85.1061 51.1763 83.7212 51.1763C82.3363 51.1763 81.2087 50.7657 80.3385 49.9446C79.4806 49.1234 79.0517 47.8978 79.0517 46.2678V38.1973H80.3385ZM95.1584 38.1973C96.58 38.1973 97.7995 38.4547 98.8167 38.9694C99.834 39.4842 100.612 40.2257 101.151 41.1939C101.691 42.1621 101.96 43.3141 101.96 44.65C101.96 45.9737 101.691 47.1196 101.151 48.0878C100.612 49.0438 99.834 49.7791 98.8167 50.2939C97.7995 50.7964 96.58 51.0476 95.1584 51.0476H91.3529V38.1973H95.1584ZM95.1584 49.9813C96.9477 49.9813 98.3081 49.5156 99.2396 48.5842C100.183 47.6405 100.655 46.3291 100.655 44.65C100.655 42.9587 100.183 41.6412 99.2396 40.6975C98.3081 39.7415 96.9477 39.2636 95.1584 39.2636H92.6398V49.9813H95.1584ZM105.712 38.1973V51.0476H104.425V38.1973H105.712ZM114.49 51.1763C113.301 51.1763 112.223 50.9005 111.255 50.349C110.286 49.7853 109.52 49.007 108.957 48.0143C108.405 47.0093 108.129 45.8756 108.129 44.6133C108.129 43.3509 108.405 42.2234 108.957 41.2306C109.52 40.2257 110.286 39.4474 111.255 38.8959C112.223 38.3321 113.301 38.0502 114.49 38.0502C115.691 38.0502 116.776 38.3321 117.744 38.8959C118.712 39.4474 119.472 40.2257 120.024 41.2306C120.575 42.2234 120.851 43.3509 120.851 44.6133C120.851 45.8756 120.575 47.0093 120.024 48.0143C119.472 49.007 118.712 49.7853 117.744 50.349C116.776 50.9005 115.691 51.1763 114.49 51.1763ZM114.49 50.0549C115.446 50.0549 116.304 49.8343 117.064 49.3931C117.824 48.9518 118.424 48.3207 118.866 47.4995C119.307 46.6661 119.527 45.704 119.527 44.6133C119.527 43.5225 119.307 42.5665 118.866 41.7454C118.424 40.9242 117.824 40.2931 117.064 39.8518C116.304 39.4106 115.446 39.19 114.49 39.19C113.534 39.19 112.676 39.4106 111.917 39.8518C111.157 40.2931 110.556 40.9242 110.115 41.7454C109.674 42.5665 109.453 43.5225 109.453 44.6133C109.453 45.704 109.674 46.6661 110.115 47.4995C110.556 48.3207 111.157 48.9518 111.917 49.3931C112.676 49.8343 113.534 50.0549 114.49 50.0549ZM144.024 38.1973L140.384 51.0476H138.95L135.714 40.0908L132.405 51.0476L131.008 51.066L127.442 38.1973H128.82L131.762 49.4666L135.053 38.1973H136.487L139.685 49.4666L142.645 38.1973H144.024ZM147.371 39.2452V44.0434H152.243V45.1096H147.371V49.9813H152.794V51.0476H146.084V38.1789H152.794V39.2452H147.371ZM161.434 44.411C162.157 44.5459 162.769 44.9135 163.272 45.5141C163.774 46.1146 164.026 46.8132 164.026 47.6098C164.026 48.2594 163.86 48.8477 163.529 49.3747C163.211 49.8894 162.739 50.3 162.114 50.6064C161.489 50.9005 160.741 51.0476 159.871 51.0476H155.422V38.1973H159.742C161.041 38.1973 162.028 38.4976 162.702 39.0981C163.388 39.6986 163.732 40.4769 163.732 41.4329C163.732 42.2295 163.517 42.8791 163.088 43.3815C162.659 43.8718 162.108 44.2149 161.434 44.411ZM156.709 43.8779H159.705C160.576 43.8779 161.244 43.6757 161.709 43.2712C162.187 42.8545 162.426 42.2846 162.426 41.5615C162.426 40.8507 162.187 40.2931 161.709 39.8886C161.244 39.4842 160.557 39.2819 159.65 39.2819H156.709V43.8779ZM159.779 49.963C160.71 49.963 161.434 49.7424 161.948 49.3011C162.475 48.8599 162.739 48.2533 162.739 47.4811C162.739 46.709 162.463 46.0962 161.912 45.6428C161.372 45.177 160.643 44.9442 159.724 44.9442H156.709V49.963H159.779Z" fill="white"/>
<path d="M59.4567 6.60073H68.1274C69.9052 6.60073 71.4328 6.86686 72.7103 7.39913C73.9984 7.93141 74.9884 8.71917 75.6804 9.76242C76.3723 10.8057 76.7183 12.0884 76.7183 13.6107C76.7183 14.8563 76.5054 15.9261 76.0796 16.8203C75.6644 17.7039 75.0736 18.4438 74.3071 19.0399C73.5513 19.6254 72.6624 20.0938 71.6404 20.4451L70.1234 21.2435H62.5865L62.5545 17.507H68.1594C69.0003 17.507 69.6976 17.3579 70.2512 17.0599C70.8047 16.7618 71.2199 16.3466 71.4967 15.8143C71.7841 15.2821 71.9278 14.6646 71.9278 13.962C71.9278 13.2169 71.7894 12.5728 71.5127 12.0299C71.2359 11.487 70.8154 11.0718 70.2512 10.7844C69.687 10.497 68.9791 10.3532 68.1274 10.3532H64.2472V29.8503H59.4567V6.60073ZM72.4548 29.8503L67.1534 19.487L72.2153 19.4551L77.5806 29.6268V29.8503H72.4548ZM90.0236 10.5768L83.7002 29.8503H78.6064L87.2451 6.60073H90.4867L90.0236 10.5768ZM95.2771 29.8503L88.9377 10.5768L88.4268 6.60073H91.7002L100.387 29.8503H95.2771ZM94.9897 21.1956V24.9481H82.7102V21.1956H94.9897ZM114.81 23.7665C114.81 23.3513 114.746 22.9787 114.618 22.6487C114.501 22.3081 114.278 21.9993 113.948 21.7226C113.618 21.4351 113.155 21.153 112.558 20.8762C111.962 20.5995 111.191 20.312 110.243 20.014C109.189 19.6733 108.189 19.2901 107.241 18.8643C106.304 18.4384 105.474 17.9434 104.75 17.3792C104.037 16.8044 103.473 16.139 103.057 15.3832C102.653 14.6274 102.451 13.7491 102.451 12.7485C102.451 11.7797 102.664 10.9015 103.089 10.1137C103.515 9.31531 104.111 8.634 104.878 8.0698C105.644 7.49494 106.549 7.05316 107.592 6.74444C108.646 6.43572 109.801 6.28136 111.057 6.28136C112.771 6.28136 114.267 6.59008 115.544 7.20752C116.822 7.82495 117.812 8.67126 118.515 9.74645C119.228 10.8216 119.584 12.0512 119.584 13.4351H114.826C114.826 12.7538 114.682 12.1576 114.395 11.6467C114.118 11.125 113.692 10.7152 113.117 10.4171C112.553 10.119 111.84 9.97 110.978 9.97C110.147 9.97 109.455 10.0978 108.902 10.3532C108.348 10.5981 107.933 10.9334 107.656 11.3592C107.379 11.7744 107.241 12.2428 107.241 12.7644C107.241 13.1583 107.337 13.5149 107.528 13.8343C107.731 14.1537 108.029 14.4517 108.423 14.7285C108.817 15.0053 109.301 15.2661 109.876 15.511C110.451 15.7558 111.116 15.9953 111.872 16.2295C113.139 16.6128 114.251 17.0439 115.209 17.5229C116.178 18.002 116.987 18.5396 117.636 19.1357C118.286 19.7319 118.775 20.4078 119.105 21.1637C119.435 21.9195 119.6 22.7765 119.6 23.7345C119.6 24.7459 119.403 25.6507 119.01 26.4491C118.616 27.2475 118.046 27.9235 117.301 28.4771C116.556 29.0306 115.667 29.4511 114.634 29.7386C113.602 30.026 112.447 30.1697 111.169 30.1697C110.02 30.1697 108.886 30.0207 107.768 29.7226C106.65 29.4139 105.634 28.9508 104.718 28.3334C103.813 27.7159 103.089 26.9282 102.546 25.9701C102.004 25.012 101.732 23.8783 101.732 22.5689H106.538C106.538 23.2928 106.65 23.9049 106.874 24.4052C107.097 24.9055 107.411 25.3101 107.816 25.6188C108.231 25.9275 108.721 26.1511 109.285 26.2894C109.86 26.4278 110.488 26.497 111.169 26.497C112 26.497 112.681 26.3799 113.213 26.1457C113.756 25.9115 114.155 25.5868 114.411 25.1717C114.677 24.7565 114.81 24.2881 114.81 23.7665ZM128.115 6.60073V29.8503H123.341V6.60073H128.115ZM139.904 29.8503H134.842L134.874 26.1138H139.904C141.16 26.1138 142.219 25.8317 143.081 25.2675C143.944 24.6926 144.593 23.857 145.029 22.7605C145.476 21.664 145.7 20.3387 145.7 18.7844V17.6507C145.7 16.4584 145.572 15.4098 145.317 14.505C145.072 13.6001 144.705 12.8389 144.215 12.2215C143.725 11.6041 143.124 11.141 142.411 10.8323C141.697 10.5129 140.878 10.3532 139.951 10.3532H134.746V6.60073H139.951C141.506 6.60073 142.927 6.86686 144.215 7.39913C145.514 7.92076 146.637 8.67126 147.584 9.65064C148.532 10.63 149.261 11.801 149.772 13.1636C150.294 14.5156 150.554 16.0219 150.554 17.6826V18.7844C150.554 20.4345 150.294 21.9408 149.772 23.3034C149.261 24.666 148.532 25.837 147.584 26.8164C146.647 27.7851 145.524 28.5356 144.215 29.0679C142.916 29.5895 141.479 29.8503 139.904 29.8503ZM137.556 6.60073V29.8503H132.766V6.60073H137.556ZM159.293 6.60073V29.8503H154.518V6.60073H159.293ZM173.684 10.5768L167.36 29.8503H162.267L170.905 6.60073H174.147L173.684 10.5768ZM178.937 29.8503L172.598 10.5768L172.087 6.60073H175.361L184.047 29.8503H178.937ZM178.65 21.1956V24.9481H166.37V21.1956H178.65Z" fill="white"/>
<defs>
<filter id="filter0_d_48_214" x="0.5" y="6.1377" width="50" height="51.5" filterUnits="userSpaceOnUse" color-interpolation-filters="sRGB">
<feFlood flood-opacity="0" result="BackgroundImageFix"/>
<feColorMatrix in="SourceAlpha" type="matrix" values="0 0 0 0 0 0 0 0 0 0 0 0 0 0 0 0 0 0 127 0" result="hardAlpha"/>
<feOffset dx="-2" dy="4"/>
<feGaussianBlur stdDeviation="1.25"/>
<feComposite in2="hardAlpha" operator="out"/>
<feColorMatrix type="matrix" values="0 0 0 0 0 0 0 0 0 0 0 0 0 0 0 0 0 0 0.25 0"/>
<feBlend mode="normal" in2="BackgroundImageFix" result="effect1_dropShadow_48_214"/>
<feBlend mode="normal" in="SourceGraphic" in2="effect1_dropShadow_48_214" result="shape"/>
</filter>
<radialGradient id="paint0_radial_48_214" cx="0" cy="0" r="1" gradientUnits="userSpaceOnUse" gradientTransform="translate(27.5 28.6377) rotate(90) scale(22.5)">
<stop stop-color="#0047FF"/>
<stop offset="1" stop-color="#0084FF" stop-opacity="0.67"/>
</radialGradient>
<radialGradient id="paint1_radial_48_214" cx="0" cy="0" r="1" gradientUnits="userSpaceOnUse" gradientTransform="translate(16.5538 42.5836) rotate(90) scale(8.47297 0.202702)">
<stop stop-color="#0047FF"/>
<stop offset="1" stop-color="#0084FF" stop-opacity="0.67"/>
</radialGradient>
<radialGradient id="paint2_radial_48_214" cx="0" cy="0" r="1" gradientUnits="userSpaceOnUse" gradientTransform="translate(16.5538 42.5836) rotate(90) scale(8.47297 0.202702)">
<stop stop-color="#0047FF"/>
<stop offset="1" stop-color="#0084FF" stop-opacity="0.67"/>
</radialGradient>
</defs>
</svg>
