<svg width="210" height="58" viewBox="0 0 210 58" fill="none" xmlns="http://www.w3.org/2000/svg">
<path d="M0 15.7952C0 9.28087 5.28087 4 11.7952 4H52.3705V56.3705H0V15.7952Z" fill="#0084FF"/>
<path d="M36.6565 40.1845L16.186 40.1845L16.186 19.7141L27.8367 19.7141C32.7077 19.7141 36.6565 23.6628 36.6565 28.5339L36.6565 40.1845Z" stroke="white" stroke-width="5.95071"/>
<rect x="12.8331" y="36.9321" width="1.2267" height="20.4764" transform="rotate(-90 12.8331 36.9321)" fill="#0084FF" stroke="#0084FF" stroke-width="0.75489"/>
<path d="M69.2858 56.446C68.1981 56.446 67.2365 56.2568 66.4009 55.8785C65.5812 55.5001 64.9348 54.972 64.4619 54.2942C63.989 53.6163 63.7367 52.8596 63.7052 52.0241H65.4551C65.5339 52.8281 65.8886 53.5375 66.5192 54.1523C67.1497 54.7513 68.072 55.0509 69.2858 55.0509C70.4051 55.0509 71.2879 54.7671 71.9343 54.1996C72.5964 53.6163 72.9274 52.8832 72.9274 52.0004C72.9274 51.291 72.7461 50.7235 72.3836 50.2979C72.021 49.8564 71.5717 49.5333 71.0357 49.3283C70.4997 49.1076 69.7588 48.8712 68.8129 48.6189C67.7094 48.3194 66.8345 48.0278 66.1881 47.744C65.5418 47.4602 64.99 47.0188 64.5328 46.4198C64.0757 45.8207 63.8471 45.0089 63.8471 43.9842C63.8471 43.1329 64.0678 42.3762 64.5092 41.7141C64.9506 41.0362 65.5733 40.5081 66.3773 40.1297C67.1813 39.7514 68.1035 39.5622 69.144 39.5622C70.6731 39.5622 71.9027 39.9406 72.8329 40.6973C73.7787 41.4382 74.3226 42.3998 74.4645 43.5822H72.6673C72.557 42.9043 72.1865 42.3052 71.5559 41.785C70.9253 41.249 70.0741 40.981 69.0021 40.981C68.0089 40.981 67.1813 41.249 66.5192 41.785C65.8571 42.3052 65.526 43.0225 65.526 43.9369C65.526 44.6305 65.7073 45.1902 66.0699 45.6158C66.4325 46.0414 66.8817 46.3646 67.4177 46.5853C67.9695 46.806 68.7104 47.0425 69.6405 47.2947C70.7125 47.5942 71.5796 47.8938 72.2417 48.1933C72.9038 48.4771 73.4634 48.9185 73.9206 49.5175C74.3778 50.1166 74.6064 50.9206 74.6064 51.9295C74.6064 52.7019 74.4014 53.435 73.9915 54.1286C73.5817 54.8223 72.9747 55.3819 72.1707 55.8076C71.3668 56.2332 70.4051 56.446 69.2858 56.446ZM87.5947 39.7514V41.1229H83.0072V56.2805H81.352V41.1229H76.7409V39.7514H87.5947ZM91.911 39.7514V50.156C91.911 51.7955 92.2972 53.0094 93.0697 53.7976C93.8579 54.5858 94.9299 54.9799 96.2856 54.9799C97.6414 54.9799 98.6976 54.5937 99.4543 53.8212C100.227 53.033 100.613 51.8112 100.613 50.156V39.7514H102.268V50.1323C102.268 52.229 101.709 53.8055 100.589 54.8617C99.4858 55.9179 98.0434 56.446 96.262 56.446C94.4806 56.446 93.0303 55.9179 91.911 54.8617C90.8075 53.8055 90.2557 52.229 90.2557 50.1323V39.7514H91.911ZM110.973 39.7514C112.802 39.7514 114.371 40.0824 115.679 40.7446C116.988 41.4067 117.989 42.3604 118.682 43.6058C119.376 44.8512 119.723 46.3331 119.723 48.0514C119.723 49.754 119.376 51.228 118.682 52.4734C117.989 53.703 116.988 54.6489 115.679 55.311C114.371 55.9573 112.802 56.2805 110.973 56.2805H106.079V39.7514H110.973ZM110.973 54.909C113.275 54.909 115.025 54.3099 116.223 53.1118C117.437 51.898 118.044 50.2111 118.044 48.0514C118.044 45.8759 117.437 44.1812 116.223 42.9674C115.025 41.7377 113.275 41.1229 110.973 41.1229H107.734V54.909H110.973ZM124.548 39.7514V56.2805H122.893V39.7514H124.548ZM135.84 56.446C134.311 56.446 132.923 56.0913 131.678 55.3819C130.432 54.6567 129.447 53.6557 128.722 52.3788C128.013 51.0861 127.658 49.6279 127.658 48.0041C127.658 46.3804 128.013 44.93 128.722 43.6531C129.447 42.3604 130.432 41.3594 131.678 40.65C132.923 39.9248 134.311 39.5622 135.84 39.5622C137.385 39.5622 138.78 39.9248 140.025 40.65C141.271 41.3594 142.248 42.3604 142.957 43.6531C143.667 44.93 144.021 46.3804 144.021 48.0041C144.021 49.6279 143.667 51.0861 142.957 52.3788C142.248 53.6557 141.271 54.6567 140.025 55.3819C138.78 56.0913 137.385 56.446 135.84 56.446ZM135.84 55.0036C137.069 55.0036 138.173 54.7198 139.15 54.1523C140.128 53.5848 140.9 52.7729 141.468 51.7167C142.035 50.6447 142.319 49.4072 142.319 48.0041C142.319 46.6011 142.035 45.3714 141.468 44.3152C140.9 43.259 140.128 42.4471 139.15 41.8796C138.173 41.3121 137.069 41.0283 135.84 41.0283C134.61 41.0283 133.507 41.3121 132.529 41.8796C131.552 42.4471 130.779 43.259 130.212 44.3152C129.644 45.3714 129.36 46.6011 129.36 48.0041C129.36 49.4072 129.644 50.6447 130.212 51.7167C130.779 52.7729 131.552 53.5848 132.529 54.1523C133.507 54.7198 134.61 55.0036 135.84 55.0036ZM173.828 39.7514L169.146 56.2805H167.302L163.14 42.187L158.883 56.2805L157.086 56.3041L152.499 39.7514H154.272L158.056 54.2469L162.289 39.7514H164.133L168.248 54.2469L172.055 39.7514H173.828ZM178.134 41.0993V47.2711H184.4V48.6426H178.134V54.909H185.11V56.2805H176.478V39.7277H185.11V41.0993H178.134ZM196.222 47.744C197.152 47.9174 197.94 48.3903 198.587 49.1628C199.233 49.9353 199.556 50.8338 199.556 51.8585C199.556 52.6941 199.343 53.4508 198.918 54.1286C198.508 54.7907 197.901 55.3189 197.097 55.713C196.293 56.0913 195.331 56.2805 194.212 56.2805H188.489V39.7514H194.046C195.717 39.7514 196.986 40.1376 197.854 40.9101C198.736 41.6825 199.178 42.6836 199.178 43.9132C199.178 44.9379 198.902 45.7734 198.35 46.4198C197.798 47.0504 197.089 47.4918 196.222 47.744ZM190.145 47.0582H193.999C195.118 47.0582 195.978 46.7981 196.577 46.2779C197.191 45.7419 197.499 45.0089 197.499 44.0788C197.499 43.1644 197.191 42.4471 196.577 41.9269C195.978 41.4067 195.095 41.1466 193.928 41.1466H190.145V47.0582ZM194.094 54.8853C195.292 54.8853 196.222 54.6016 196.884 54.034C197.562 53.4665 197.901 52.6862 197.901 51.693C197.901 50.6998 197.546 49.9116 196.837 49.3283C196.143 48.7293 195.205 48.4298 194.023 48.4298H190.145V54.8853H194.094Z" fill="white"/>
<path d="M64.6389 4.94461H74.0699C76.0035 4.94461 77.6651 5.23408 79.0546 5.81302C80.4556 6.39197 81.5324 7.2488 82.2851 8.38353C83.0377 9.51826 83.414 10.9135 83.414 12.5693C83.414 13.924 83.1824 15.0877 82.7193 16.0603C82.2677 17.0214 81.6251 17.8261 80.7914 18.4745C79.9693 19.1114 79.0025 19.6208 77.8909 20.0029L76.2409 20.8714H68.0431L68.0083 16.8072H74.1046C75.0193 16.8072 75.7777 16.6451 76.3798 16.3209C76.9819 15.9966 77.4335 15.5451 77.7346 14.9661C78.0472 14.3872 78.2035 13.7156 78.2035 12.9514C78.2035 12.1409 78.053 11.4404 77.7519 10.8498C77.4509 10.2593 76.9935 9.80773 76.3798 9.49511C75.7662 9.18248 74.9962 9.02616 74.0699 9.02616H69.8494V30.2329H64.6389V4.94461ZM78.7767 30.2329L73.0104 18.9608L78.5162 18.9261L84.3519 29.9897V30.2329H78.7767ZM97.886 9.26932L91.0081 30.2329H85.4676L94.8639 4.94461H98.3897L97.886 9.26932ZM103.6 30.2329L96.705 9.26932L96.1492 4.94461H99.7097L109.158 30.2329H103.6ZM103.288 20.8192V24.9008H89.9313V20.8192H103.288ZM124.846 23.6155C124.846 23.164 124.776 22.7587 124.637 22.3998C124.51 22.0292 124.267 21.6935 123.908 21.3924C123.549 21.0798 123.045 20.7729 122.397 20.4719C121.748 20.1708 120.909 19.8582 119.878 19.534C118.732 19.1635 117.644 18.7466 116.613 18.2835C115.594 17.8203 114.691 17.2819 113.904 16.6682C113.128 16.043 112.514 15.3193 112.063 14.4972C111.623 13.6751 111.403 12.7198 111.403 11.6314C111.403 10.5777 111.634 9.62247 112.097 8.76564C112.561 7.89722 113.209 7.15617 114.043 6.54249C114.876 5.91723 115.861 5.43671 116.995 5.10092C118.142 4.76513 119.398 4.59724 120.764 4.59724C122.628 4.59724 124.255 4.93303 125.645 5.6046C127.034 6.27618 128.111 7.1967 128.875 8.36616C129.651 9.53563 130.039 10.873 130.039 12.3782H124.863C124.863 11.6372 124.707 10.9888 124.394 10.433C124.093 9.86563 123.63 9.41984 123.005 9.09563C122.391 8.77143 121.615 8.60932 120.677 8.60932C119.774 8.60932 119.022 8.74827 118.42 9.02616C117.817 9.29247 117.366 9.65721 117.065 10.1204C116.764 10.5719 116.613 11.0814 116.613 11.6488C116.613 12.0772 116.717 12.4651 116.926 12.8125C117.146 13.1598 117.47 13.484 117.898 13.7851C118.327 14.0861 118.854 14.3698 119.479 14.6361C120.104 14.9024 120.828 15.163 121.65 15.4177C123.028 15.8345 124.238 16.3035 125.28 16.8245C126.334 17.3456 127.214 17.9303 127.92 18.5787C128.626 19.2272 129.159 19.9624 129.518 20.7845C129.877 21.6066 130.056 22.5387 130.056 23.5808C130.056 24.6808 129.842 25.665 129.414 26.5334C128.985 27.4018 128.366 28.1371 127.555 28.7392C126.745 29.3413 125.778 29.7987 124.655 30.1113C123.532 30.4239 122.275 30.5802 120.886 30.5802C119.635 30.5802 118.402 30.4181 117.186 30.0939C115.971 29.7581 114.865 29.2545 113.869 28.5829C112.885 27.9113 112.097 27.0545 111.507 26.0124C110.916 24.9703 110.621 23.7371 110.621 22.3129H115.849C115.849 23.1003 115.971 23.7661 116.214 24.3103C116.457 24.8545 116.798 25.2945 117.238 25.6303C117.69 25.9661 118.223 26.2092 118.836 26.3597C119.462 26.5103 120.145 26.5855 120.886 26.5855C121.789 26.5855 122.53 26.4582 123.109 26.2034C123.699 25.9487 124.134 25.5955 124.412 25.144C124.701 24.6924 124.846 24.1829 124.846 23.6155ZM139.318 4.94461V30.2329H134.125V4.94461H139.318ZM152.14 30.2329H146.634L146.669 26.1687H152.14C153.506 26.1687 154.658 25.8619 155.596 25.2482C156.534 24.6229 157.24 23.714 157.715 22.5213C158.201 21.3287 158.444 19.8872 158.444 18.1966V16.9635C158.444 15.6666 158.306 14.5261 158.028 13.5419C157.761 12.5577 157.362 11.7298 156.829 11.0583C156.297 10.3867 155.642 9.883 154.867 9.54721C154.091 9.19984 153.199 9.02616 152.192 9.02616H146.53V4.94461H152.192C153.882 4.94461 155.428 5.23408 156.829 5.81302C158.242 6.38039 159.463 7.1967 160.494 8.26195C161.524 9.32721 162.318 10.6009 162.873 12.083C163.441 13.5535 163.724 15.1919 163.724 16.9982V18.1966C163.724 19.9914 163.441 21.6298 162.873 23.1119C162.318 24.594 161.524 25.8676 160.494 26.9329C159.475 27.9866 158.253 28.8029 156.829 29.3818C155.417 29.9492 153.853 30.2329 152.14 30.2329ZM149.587 4.94461V30.2329H144.376V4.94461H149.587ZM173.229 4.94461V30.2329H168.036V4.94461H173.229ZM188.882 9.26932L182.004 30.2329H176.464L185.86 4.94461H189.386L188.882 9.26932ZM194.596 30.2329L187.701 9.26932L187.145 4.94461H190.706L200.154 30.2329H194.596ZM194.284 20.8192V24.9008H180.927V20.8192H194.284Z" fill="white"/>
</svg>
