<svg width="44" height="33" viewBox="0 0 44 33" fill="none" xmlns="http://www.w3.org/2000/svg">
<g clip-path="url(#clip0_29_319)">
<path d="M36.3145 3.10355C33.6803 1.89486 30.8555 1.00436 27.902 0.494327C27.8482 0.484484 27.7945 0.509083 27.7668 0.558282C27.4035 1.20443 27.0011 2.04737 26.7193 2.70993C23.5426 2.23435 20.3823 2.23435 17.2707 2.70993C16.9889 2.03265 16.5719 1.20443 16.207 0.558282C16.1792 0.510724 16.1255 0.486125 16.0717 0.494327C13.1199 1.00273 10.2951 1.89323 7.65928 3.10355C7.63646 3.11338 7.6169 3.1298 7.60392 3.1511C2.2459 11.1559 0.77811 18.9639 1.49816 26.6751C1.50142 26.7128 1.5226 26.7489 1.55192 26.7718C5.08699 29.3679 8.51131 30.944 11.872 31.9886C11.9258 32.005 11.9828 31.9854 12.017 31.9411C12.812 30.8554 13.5207 29.7107 14.1283 28.5069C14.1641 28.4364 14.1299 28.3528 14.0566 28.3249C12.9325 27.8985 11.8622 27.3786 10.8327 26.7883C10.7512 26.7407 10.7447 26.6242 10.8196 26.5685C11.0363 26.4061 11.253 26.2372 11.4599 26.0666C11.4973 26.0355 11.5495 26.0289 11.5935 26.0486C18.3573 29.1367 25.68 29.1367 32.364 26.0486C32.408 26.0273 32.4602 26.0338 32.4992 26.065C32.7062 26.2355 32.9228 26.4061 33.1411 26.5685C33.216 26.6242 33.2111 26.7407 33.1297 26.7883C32.1001 27.3901 31.0298 27.8985 29.9041 28.3233C29.8308 28.3512 29.7982 28.4364 29.8341 28.5069C30.4547 29.709 31.1634 30.8537 31.9437 31.9394C31.9763 31.9854 32.0349 32.005 32.0887 31.9886C35.4657 30.944 38.89 29.3679 42.4251 26.7718C42.4561 26.7489 42.4756 26.7144 42.4789 26.6767C43.3406 17.7617 41.0355 10.0177 36.3682 3.15273C36.3568 3.1298 36.3373 3.11338 36.3145 3.10355ZM15.1383 21.9798C13.1019 21.9798 11.424 20.1102 11.424 17.8142C11.424 15.5182 13.0694 13.6487 15.1383 13.6487C17.2235 13.6487 18.8852 15.5346 18.8526 17.8142C18.8526 20.1102 17.2072 21.9798 15.1383 21.9798ZM28.8713 21.9798C26.835 21.9798 25.1571 20.1102 25.1571 17.8142C25.1571 15.5182 26.8024 13.6487 28.8713 13.6487C30.9565 13.6487 32.6181 15.5346 32.5856 17.8142C32.5856 20.1102 30.9565 21.9798 28.8713 21.9798Z" fill="white"/>
</g>
<defs>
<clipPath id="clip0_29_319">
<rect width="43" height="32" fill="white" transform="translate(0.427216 0.5)"/>
</clipPath>
</defs>
</svg>
