<svg width="42" height="41" viewBox="0 0 42 41" fill="none" xmlns="http://www.w3.org/2000/svg">
<path d="M21.2197 0.0750427C9.89798 0.0750427 0.719696 9.25332 0.719696 20.575C0.719696 30.1887 7.33874 38.2559 16.2678 40.4715V26.8398H12.0407V20.575H16.2678V17.8756C16.2678 10.8982 19.4255 7.66414 26.2759 7.66414C27.5747 7.66414 29.8158 7.91916 30.7326 8.17336V13.8519C30.2488 13.801 29.4083 13.7756 28.3644 13.7756C25.0031 13.7756 23.7043 15.0491 23.7043 18.3594V20.575H30.4005L29.25 26.8398H23.7043V40.925C33.855 39.6991 41.7206 31.0563 41.7206 20.575C41.7197 9.25332 32.5414 0.0750427 21.2197 0.0750427Z" fill="white"/>
</svg>
