<svg width="42" height="41" viewBox="0 0 42 41" fill="none" xmlns="http://www.w3.org/2000/svg">
<path fill-rule="evenodd" clip-rule="evenodd" d="M20.6818 0.179626C9.24532 0.179626 0 9.4931 0 21.0151C0 30.2253 5.92379 38.0216 14.1417 40.7809C15.1691 40.9883 15.5455 40.3326 15.5455 39.781C15.5455 39.2979 15.5116 37.6422 15.5116 35.9171C9.75841 37.1592 8.56035 33.4334 8.56035 33.4334C7.63578 31.0187 6.26585 30.398 6.26585 30.398C4.38284 29.1217 6.40301 29.1217 6.40301 29.1217C8.49177 29.2597 9.5878 31.2604 9.5878 31.2604C11.4365 34.4337 14.4156 33.5371 15.614 32.9851C15.7851 31.6397 16.3333 30.7084 16.9154 30.191C12.3268 29.708 7.49904 27.9143 7.49904 19.9111C7.49904 17.6344 8.32032 15.7717 9.62167 14.323C9.41635 13.8057 8.69709 11.6665 9.82741 8.80348C9.82741 8.80348 11.5737 8.25145 15.5112 10.9422C17.1969 10.4861 18.9355 10.2541 20.6818 10.2522C22.4281 10.2522 24.2083 10.4939 25.8521 10.9422C29.79 8.25145 31.5363 8.80348 31.5363 8.80348C32.6666 11.6665 31.9469 13.8057 31.7416 14.323C33.0772 15.7717 33.8646 17.6344 33.8646 19.9111C33.8646 27.9143 29.0369 29.6733 24.414 30.191C25.1676 30.8464 25.8178 32.088 25.8178 34.0544C25.8178 36.8485 25.7839 39.0909 25.7839 39.7805C25.7839 40.3326 26.1607 40.9883 27.1877 40.7813C35.4056 38.0211 41.3294 30.2253 41.3294 21.0151C41.3633 9.4931 32.0841 0.179626 20.6818 0.179626Z" fill="white"/>
</svg>
