<svg width="42" height="41" viewBox="0 0 42 41" fill="none" xmlns="http://www.w3.org/2000/svg">
<g clip-path="url(#clip0_29_321)">
<mask id="mask0_29_321" style="mask-type:luminance" maskUnits="userSpaceOnUse" x="0" y="0" width="42" height="41">
<path d="M41.5735 0H0.573456V41H41.5735V0Z" fill="white"/>
</mask>
<g mask="url(#mask0_29_321)">
<path d="M21.0735 3.6916C26.5508 3.6916 27.1995 3.71562 29.3536 3.81172C31.3555 3.8998 32.4365 4.23614 33.1573 4.51641C34.1102 4.88476 34.7989 5.3332 35.5115 6.04589C36.2323 6.7666 36.6727 7.44726 37.0411 8.4002C37.3213 9.12088 37.6576 10.2099 37.7458 12.2039C37.8418 14.366 37.8659 15.0146 37.8659 20.484C37.8659 25.9614 37.8418 26.6099 37.7458 28.7641C37.6576 30.7661 37.3213 31.8471 37.0411 32.5677C36.6727 33.5207 36.2242 34.2094 35.5115 34.9221C34.7909 35.6427 34.1102 36.0832 33.1573 36.4516C32.4365 36.7318 31.3475 37.0682 29.3536 37.1562C27.1914 37.2523 26.5428 37.2763 21.0735 37.2763C15.5961 37.2763 14.9475 37.2523 12.7934 37.1562C10.7914 37.0682 9.71039 36.7318 8.98967 36.4516C8.03674 36.0832 7.34806 35.6348 6.63537 34.9221C5.91467 34.2013 5.47424 33.5207 5.10588 32.5677C4.82561 31.8471 4.48928 30.758 4.40119 28.7641C4.3051 26.602 4.28108 25.9533 4.28108 20.484C4.28108 15.0067 4.3051 14.358 4.40119 12.2039C4.48928 10.2019 4.82561 9.12088 5.10588 8.4002C5.47424 7.44726 5.92267 6.75859 6.63537 6.04589C7.35608 5.3252 8.03674 4.88476 8.98967 4.51641C9.71039 4.23614 10.7995 3.8998 12.7934 3.81172C14.9475 3.71562 15.5961 3.6916 21.0735 3.6916ZM21.0735 0C15.508 0 14.8114 0.0240234 12.6252 0.120117C10.4471 0.216211 8.94963 0.568555 7.65236 1.07305C6.29905 1.60156 5.15392 2.29824 4.01681 3.44336C2.8717 4.58047 2.17502 5.72559 1.6465 7.0709C1.14201 8.37617 0.789667 9.86562 0.693573 12.0437C0.597479 14.2378 0.573456 14.9346 0.573456 20.5C0.573456 26.0654 0.597479 26.7621 0.693573 28.9482C0.789667 31.1263 1.14201 32.6239 1.6465 33.9211C2.17502 35.2744 2.8717 36.4195 4.01681 37.5567C5.15392 38.6937 6.29904 39.3984 7.64436 39.919C8.94963 40.4234 10.4391 40.7758 12.6172 40.8719C14.8034 40.968 15.5 40.992 21.0654 40.992C26.6309 40.992 27.3276 40.968 29.5137 40.8719C31.6919 40.7758 33.1893 40.4234 34.4865 39.919C35.8318 39.3984 36.977 38.6937 38.1141 37.5567C39.2512 36.4195 39.9559 35.2744 40.4764 33.9291C40.9809 32.6239 41.3333 31.1344 41.4293 28.9562C41.5254 26.7701 41.5494 26.0734 41.5494 20.508C41.5494 14.9426 41.5254 14.2459 41.4293 12.0598C41.3333 9.88168 40.9809 8.38418 40.4764 7.08692C39.9719 5.72558 39.2752 4.58047 38.1301 3.44336C36.993 2.30625 35.8479 1.60156 34.5026 1.08105C33.1973 0.576562 31.7078 0.224219 29.5297 0.128125C27.3356 0.0240234 26.6389 0 21.0735 0Z" fill="white"/>
<path d="M21.0735 9.96976C15.2598 9.96976 10.5432 14.6864 10.5432 20.5C10.5432 26.3136 15.2598 31.0303 21.0735 31.0303C26.8871 31.0303 31.6037 26.3136 31.6037 20.5C31.6037 14.6864 26.8871 9.96976 21.0735 9.96976ZM21.0735 27.3307C17.3018 27.3307 14.2428 24.2717 14.2428 20.5C14.2428 16.7284 17.3018 13.6693 21.0735 13.6693C24.8451 13.6693 27.9042 16.7284 27.9042 20.5C27.9042 24.2717 24.8451 27.3307 21.0735 27.3307Z" fill="white"/>
<path d="M34.4785 9.55327C34.4785 10.9146 33.3735 12.0116 32.0201 12.0116C30.6588 12.0116 29.5617 10.9066 29.5617 9.55327C29.5617 8.19192 30.6669 7.09485 32.0201 7.09485C33.3735 7.09485 34.4785 8.19993 34.4785 9.55327Z" fill="white"/>
</g>
</g>
<defs>
<clipPath id="clip0_29_321">
<rect width="41" height="41" fill="white" transform="translate(0.573456)"/>
</clipPath>
</defs>
</svg>
