<svg width="43" height="43" viewBox="0 0 43 43" fill="none" xmlns="http://www.w3.org/2000/svg">
<path d="M39.2216 0.835266H4.00276C2.31567 0.835266 0.951477 2.16717 0.951477 3.8139V39.1781C0.951477 40.8248 2.31567 42.1648 4.00276 42.1648H39.2216C40.9087 42.1648 42.281 40.8248 42.281 39.1861V3.8139C42.281 2.16717 40.9087 0.835266 39.2216 0.835266ZM13.2131 36.0541H7.07825V16.3258H13.2131V36.0541ZM10.1457 13.6377C8.17607 13.6377 6.58585 12.0475 6.58585 10.086C6.58585 8.12443 8.17607 6.53422 10.1457 6.53422C12.1072 6.53422 13.6974 8.12443 13.6974 10.086C13.6974 12.0394 12.1072 13.6377 10.1457 13.6377ZM36.1703 36.0541H30.0436V26.4644C30.0436 24.18 30.0032 21.2336 26.8551 21.2336C23.6666 21.2336 23.1822 23.7279 23.1822 26.303V36.0541H17.0635V16.3258H22.9401V19.0219H23.0208C23.8361 17.472 25.838 15.8334 28.8166 15.8334C35.0241 15.8334 36.1703 19.9179 36.1703 25.2294V36.0541V36.0541Z" fill="white"/>
</svg>
