<svg width="80" height="80" viewBox="0 0 80 80" fill="none" xmlns="http://www.w3.org/2000/svg">
<path d="M74.0781 0H5.90625C2.64062 0 0 2.57812 0 5.76562V74.2188C0 77.4062 2.64062 80 5.90625 80H74.0781C77.3438 80 80 77.4063 80 74.2344V5.76562C80 2.57812 77.3438 0 74.0781 0ZM23.7344 68.1719H11.8594V29.9844H23.7344V68.1719ZM17.7969 24.7813C13.9844 24.7813 10.9062 21.7031 10.9062 17.9062C10.9062 14.1094 13.9844 11.0312 17.7969 11.0312C21.5938 11.0312 24.6719 14.1094 24.6719 17.9062C24.6719 21.6875 21.5938 24.7813 17.7969 24.7813ZM68.1719 68.1719H56.3125V49.6094C56.3125 45.1875 56.2344 39.4844 50.1406 39.4844C43.9687 39.4844 43.0312 44.3125 43.0312 49.2969V68.1719H31.1875V29.9844H42.5625V35.2031H42.7187C44.2969 32.2031 48.1719 29.0312 53.9375 29.0312C65.9531 29.0312 68.1719 36.9375 68.1719 47.2188V68.1719Z" fill="white"/>
</svg>
