<svg width="42" height="43" viewBox="0 0 42 43" fill="none" xmlns="http://www.w3.org/2000/svg">
<path d="M0.866821 42.1648L3.77194 31.5517C1.97927 28.4451 1.03731 24.9235 1.03903 21.3123C1.04419 10.0225 10.2314 0.835266 21.5195 0.835266C26.9974 0.836988 32.1395 2.97062 36.0072 6.84182C39.8733 10.713 42.0017 15.8585 42 21.3313C41.9948 32.6228 32.8076 41.81 21.5195 41.81C18.0926 41.8083 14.7156 40.949 11.7244 39.3165L0.866821 42.1648ZM12.2273 35.6089C15.1134 37.3223 17.8687 38.3487 21.5126 38.3504C30.8944 38.3504 38.5369 30.7148 38.5421 21.3278C38.5455 11.9219 30.9392 4.29661 21.5264 4.29317C12.1377 4.29317 4.50037 11.9288 4.49693 21.314C4.49521 25.1456 5.61799 28.0146 7.50365 31.0161L5.78331 37.2982L12.2273 35.6089ZM31.8364 26.1995C31.709 25.986 31.368 25.8586 30.8548 25.602C30.3434 25.3454 27.8274 24.1072 27.3573 23.9367C26.8889 23.7662 26.5479 23.6801 26.2052 24.1933C25.8643 24.7048 24.8827 25.8586 24.5848 26.1995C24.2869 26.5405 23.9872 26.5835 23.4758 26.327C22.9643 26.0704 21.3146 25.5314 19.36 23.7869C17.8395 22.4299 16.8114 20.7544 16.5135 20.2412C16.2156 19.7297 16.4825 19.4525 16.7373 19.1976C16.9681 18.9686 17.2488 18.6001 17.5054 18.3004C17.7654 18.0042 17.8498 17.7907 18.022 17.448C18.1925 17.107 18.1081 16.8074 17.979 16.5508C17.8498 16.2959 16.8269 13.7766 16.4015 12.7519C15.9848 11.7549 15.5629 11.8892 15.2495 11.8737L14.2679 11.8565C13.9269 11.8565 13.3724 11.9839 12.904 12.4971C12.4356 13.0102 11.1131 14.2467 11.1131 16.7661C11.1131 19.2854 12.9471 21.7187 13.202 22.0597C13.4585 22.4006 16.8097 27.5703 21.9431 29.7866C23.1641 30.3135 24.1181 30.6287 24.8603 30.8646C26.0864 31.2538 27.2023 31.1987 28.084 31.0678C29.0673 30.9214 31.1114 29.8296 31.5385 28.6345C31.9655 27.4377 31.9655 26.4131 31.8364 26.1995Z" fill="white"/>
</svg>
