<svg width="42" height="31" viewBox="0 0 42 31" fill="none" xmlns="http://www.w3.org/2000/svg">
<path d="M41.3935 7.23814C41.3935 7.23814 40.9899 4.38866 39.7468 3.13748C38.1727 1.49076 36.413 1.48268 35.6058 1.38582C29.8261 0.966064 21.1485 0.966064 21.1485 0.966064H21.1324C21.1324 0.966064 12.4548 0.966064 6.67513 1.38582C5.86792 1.48268 4.10818 1.49076 2.53411 3.13748C1.291 4.38866 0.895461 7.23814 0.895461 7.23814C0.895461 7.23814 0.475708 10.5881 0.475708 13.93V17.062C0.475708 20.4038 0.887388 23.7538 0.887388 23.7538C0.887388 23.7538 1.291 26.6033 2.52604 27.8544C4.10011 29.5012 6.16659 29.4447 7.08681 29.6223C10.3964 29.9371 21.1405 30.0339 21.1405 30.0339C21.1405 30.0339 29.8261 30.0178 35.6058 29.6061C36.413 29.5092 38.1727 29.5012 39.7468 27.8544C40.9899 26.6033 41.3935 23.7538 41.3935 23.7538C41.3935 23.7538 41.8052 20.4119 41.8052 17.062V13.93C41.8052 10.5881 41.3935 7.23814 41.3935 7.23814ZM16.8703 20.864V9.24811L28.0341 15.0762L16.8703 20.864Z" fill="white"/>
</svg>
